<?xml version="1.0" encoding="utf-8"?>
<!-- Generator: Adobe Illustrator 23.0.0, SVG Export Plug-In . SVG Version: 6.00 Build 0)  -->
<svg version="1.1" id="Capa_1" xmlns="http://www.w3.org/2000/svg" xmlns:xlink="http://www.w3.org/1999/xlink" x="0px" y="0px"
	 viewBox="0 0 628 511.2" style="enable-background:new 0 0 628 511.2;" xml:space="preserve">
<style type="text/css">
	.st0{fill:url(#SVGID_1_);}
	.st1{fill:url(#SVGID_2_);}
	.st2{fill:url(#SVGID_3_);}
	.st3{fill:url(#SVGID_4_);}
	.st4{fill:url(#SVGID_5_);}
	.st5{fill:url(#SVGID_6_);}
	.st6{fill:url(#SVGID_7_);}
	.st7{fill:url(#SVGID_8_);}
	.st8{fill:url(#SVGID_9_);}
	.st9{fill:url(#SVGID_10_);}
	.st10{fill:url(#SVGID_11_);}
	.st11{fill:url(#SVGID_12_);}
	.st12{fill:url(#SVGID_13_);}
	.st13{fill:url(#SVGID_14_);}
	.st14{fill:url(#SVGID_15_);}
	.st15{fill:url(#SVGID_16_);}
	.st16{fill:url(#SVGID_17_);}
	.st17{fill:url(#SVGID_18_);}
	.st18{fill:url(#SVGID_19_);}
	.st19{fill:url(#SVGID_20_);}
	.st20{fill:url(#SVGID_21_);}
	.st21{fill:url(#SVGID_22_);}
	.st22{fill:url(#SVGID_23_);}
	.st23{fill:url(#SVGID_24_);}
	.st24{fill:url(#SVGID_25_);}
	.st25{fill:url(#SVGID_26_);}
	.st26{fill:url(#SVGID_27_);}
	.st27{fill:url(#SVGID_28_);}
	.st28{fill:url(#SVGID_29_);}
	.st29{fill:url(#SVGID_30_);}
	.st30{fill:url(#SVGID_31_);}
	.st31{fill:url(#SVGID_32_);}
	.st32{fill:url(#SVGID_33_);}
	.st33{fill:url(#SVGID_34_);}
</style>
<g>
	
		<linearGradient id="SVGID_1_" gradientUnits="userSpaceOnUse" x1="771.5059" y1="1025.4772" x2="826.3249" y2="1003.3182" gradientTransform="matrix(8.8652 0 0 8.8652 -6811.3057 -8780.4121)">
		<stop  offset="0.13" style="stop-color:#1CBBF3"/>
		<stop  offset="0.34" style="stop-color:#1F99A5"/>
		<stop  offset="0.45" style="stop-color:#209CA6"/>
		<stop  offset="0.51" style="stop-color:#24A4AA"/>
		<stop  offset="0.57" style="stop-color:#2BB3B0"/>
		<stop  offset="0.6" style="stop-color:#30BDB4"/>
		<stop  offset="0.79" style="stop-color:#38BA90"/>
		<stop  offset="1" style="stop-color:#60F05A"/>
	</linearGradient>
	<path class="st0" d="M142.7,234.3c7.1,23.9,16,47.9,28.4,70c5.3,9.8,10.6,19.5,20.4,25.7l5.3,2.7c14.2,2.7,22.2-8.9,27.5-18.6
		c7.1-16.8,13.3-33.7,18.6-51.4c0.9-3.5,1.8-6.2,2.7-9.8c1.8-6.2,3.5-12.4,4.4-18.6l62.9-168.4c13.3-17.7,30.1-31.9,49.6-41.7
		c18.6-10.6,39.9-16,62.1-16c31,0,62.1,10.6,86.9,30.1c41.7,31,65.6,93.1,65.6,93.1c3.5,8,5.3,16.8,5.3,25.7c0,8-1.8,16-4.4,23.9
		c-3.5,7.1-8,14.2-13.3,20.4c-5.3,5.3-12.4,10.6-20.4,13.3c-7.1,2.7-16,4.4-23.9,4.4c-8.9,0-17.7-1.8-25.7-6.2
		c-8-3.5-15.1-9.8-21.3-16c0,0,0-0.9-0.9-0.9c-3.5-5.3-7.1-11.5-9.8-17.7c-3.5-8-7.1-15.1-11.5-22.2c-2.7-3.5-4.4-7.1-7.1-10.6
		c-1.8-3.5-4.4-6.2-8-8.9c-6.2-4.4-13.3-6.2-19.5-2.7l-0.9,0.9c-7.1,4.4-11.5,14.2-15.1,22.2c-9.8,21.3-15.1,42.6-21.3,65.6
		l-2.7,13.3l-26.6,85.1l-36.3,80.7c-13.3,16.8-30.1,31-49.6,39.9c-19.5,9.8-40.8,14.2-62.1,15.1c-89.5,1.8-131.2-78.9-131.2-78.9
		C20.4,294.5,5.3,184.6,1.8,149.1C0,141.2,0,136.7,0,136.7c0-10.6,2.7-22.2,8.9-31c5.3-9.8,13.3-17.7,23-23
		c10.6-5.3,21.3-7.1,32.8-7.1c10.6,0,20.4,3.5,30.1,8.9c7.1,4.4,13.3,9.8,17.7,16c8,11.5,10.6,26.6,11.5,40.8
		C127.7,173.1,133.9,204.1,142.7,234.3z"/>
	
		<radialGradient id="SVGID_2_" cx="775.8972" cy="699.5768" r="1" gradientTransform="matrix(62.7757 223.633 -169.961 47.7101 70545.1953 -206698.5469)" gradientUnits="userSpaceOnUse">
		<stop  offset="0" style="stop-color:#227B60"/>
		<stop  offset="0.14" style="stop-color:#227B60;stop-opacity:0.81"/>
		<stop  offset="0.58" style="stop-color:#227B60;stop-opacity:0.23"/>
		<stop  offset="0.78" style="stop-color:#227B60;stop-opacity:0"/>
	</radialGradient>
	<path class="st1" d="M142.7,234.3c7.1,23.9,16,47.9,28.4,70c5.3,9.8,10.6,19.5,20.4,25.7l5.3,2.7c14.2,2.7,22.2-8.9,27.5-18.6
		c7.1-16.8,13.3-33.7,18.6-51.4c0.9-3.5,1.8-6.2,2.7-9.8c1.8-6.2,3.5-12.4,4.4-18.6l62.9-168.4c13.3-17.7,30.1-31.9,49.6-41.7
		c18.6-10.6,39.9-16,62.1-16c31,0,62.1,10.6,86.9,30.1c41.7,31,65.6,93.1,65.6,93.1c3.5,8,5.3,16.8,5.3,25.7c0,8-1.8,16-4.4,23.9
		c-3.5,7.1-8,14.2-13.3,20.4c-5.3,5.3-12.4,10.6-20.4,13.3c-7.1,2.7-16,4.4-23.9,4.4c-8.9,0-17.7-1.8-25.7-6.2
		c-8-3.5-15.1-9.8-21.3-16c0,0,0-0.9-0.9-0.9c-3.5-5.3-7.1-11.5-9.8-17.7c-3.5-8-7.1-15.1-11.5-22.2c-2.7-3.5-4.4-7.1-7.1-10.6
		c-1.8-3.5-4.4-6.2-8-8.9c-6.2-4.4-13.3-6.2-19.5-2.7l-0.9,0.9c-7.1,4.4-11.5,14.2-15.1,22.2c-9.8,21.3-15.1,42.6-21.3,65.6
		l-2.7,13.3l-26.6,85.1l-36.3,80.7c-13.3,16.8-30.1,31-49.6,39.9c-19.5,9.8-40.8,14.2-62.1,15.1c-89.5,1.8-131.2-78.9-131.2-78.9
		C20.4,294.5,5.3,184.6,1.8,149.1C0,141.2,0,136.7,0,136.7c0-10.6,2.7-22.2,8.9-31c5.3-9.8,13.3-17.7,23-23
		c10.6-5.3,21.3-7.1,32.8-7.1c10.6,0,20.4,3.5,30.1,8.9c7.1,4.4,13.3,9.8,17.7,16c8,11.5,10.6,26.6,11.5,40.8
		C127.7,173.1,133.9,204.1,142.7,234.3z"/>
	
		<radialGradient id="SVGID_3_" cx="781.6787" cy="695.0393" r="1" gradientTransform="matrix(-3.141 157.0372 -119.3316 -2.3865 85781.9844 -120916.0625)" gradientUnits="userSpaceOnUse">
		<stop  offset="0" style="stop-color:#227B60"/>
		<stop  offset="0.25" style="stop-color:#227B60;stop-opacity:0.7"/>
		<stop  offset="0.71" style="stop-color:#227B60;stop-opacity:0.2"/>
		<stop  offset="0.92" style="stop-color:#227B60;stop-opacity:0"/>
	</radialGradient>
	<path class="st2" d="M142.7,234.3c7.1,23.9,16,47.9,28.4,70c5.3,9.8,10.6,19.5,20.4,25.7l5.3,2.7c14.2,2.7,22.2-8.9,27.5-18.6
		c7.1-16.8,13.3-33.7,18.6-51.4c0.9-3.5,1.8-6.2,2.7-9.8c1.8-6.2,3.5-12.4,4.4-18.6l62.9-168.4c13.3-17.7,30.1-31.9,49.6-41.7
		c18.6-10.6,39.9-16,62.1-16c31,0,62.1,10.6,86.9,30.1c41.7,31,65.6,93.1,65.6,93.1c3.5,8,5.3,16.8,5.3,25.7c0,8-1.8,16-4.4,23.9
		c-3.5,7.1-8,14.2-13.3,20.4c-5.3,5.3-12.4,10.6-20.4,13.3c-7.1,2.7-16,4.4-23.9,4.4c-8.9,0-17.7-1.8-25.7-6.2
		c-8-3.5-15.1-9.8-21.3-16c0,0,0-0.9-0.9-0.9c-3.5-5.3-7.1-11.5-9.8-17.7c-3.5-8-7.1-15.1-11.5-22.2c-2.7-3.5-4.4-7.1-7.1-10.6
		c-1.8-3.5-4.4-6.2-8-8.9c-6.2-4.4-13.3-6.2-19.5-2.7l-0.9,0.9c-7.1,4.4-11.5,14.2-15.1,22.2c-9.8,21.3-15.1,42.6-21.3,65.6
		l-2.7,13.3l-26.6,85.1l-36.3,80.7c-13.3,16.8-30.1,31-49.6,39.9c-19.5,9.8-40.8,14.2-62.1,15.1c-89.5,1.8-131.2-78.9-131.2-78.9
		C20.4,294.5,5.3,184.6,1.8,149.1C0,141.2,0,136.7,0,136.7c0-10.6,2.7-22.2,8.9-31c5.3-9.8,13.3-17.7,23-23
		c10.6-5.3,21.3-7.1,32.8-7.1c10.6,0,20.4,3.5,30.1,8.9c7.1,4.4,13.3,9.8,17.7,16c8,11.5,10.6,26.6,11.5,40.8
		C127.7,173.1,133.9,204.1,142.7,234.3z"/>
	
		<radialGradient id="SVGID_4_" cx="782.8992" cy="696.0576" r="1" gradientTransform="matrix(3.5771 146.3715 -103.9229 2.5399 69914.9844 -116177.6406)" gradientUnits="userSpaceOnUse">
		<stop  offset="0" style="stop-color:#227B60"/>
		<stop  offset="7.000000e-02" style="stop-color:#227B60;stop-opacity:0.9"/>
		<stop  offset="0.34" style="stop-color:#227B60;stop-opacity:0.51"/>
		<stop  offset="0.59" style="stop-color:#227B60;stop-opacity:0.23"/>
		<stop  offset="0.79" style="stop-color:#227B60;stop-opacity:6.000000e-02"/>
		<stop  offset="0.92" style="stop-color:#227B60;stop-opacity:0"/>
	</radialGradient>
	<path class="st3" d="M142.7,234.3c7.1,23.9,16,47.9,28.4,70c5.3,9.8,10.6,19.5,20.4,25.7l5.3,2.7c14.2,2.7,22.2-8.9,27.5-18.6
		c7.1-16.8,13.3-33.7,18.6-51.4c0.9-3.5,1.8-6.2,2.7-9.8c1.8-6.2,3.5-12.4,4.4-18.6l62.9-168.4c13.3-17.7,30.1-31.9,49.6-41.7
		c18.6-10.6,39.9-16,62.1-16c31,0,62.1,10.6,86.9,30.1c41.7,31,65.6,93.1,65.6,93.1c3.5,8,5.3,16.8,5.3,25.7c0,8-1.8,16-4.4,23.9
		c-3.5,7.1-8,14.2-13.3,20.4c-5.3,5.3-12.4,10.6-20.4,13.3c-7.1,2.7-16,4.4-23.9,4.4c-8.9,0-17.7-1.8-25.7-6.2
		c-8-3.5-15.1-9.8-21.3-16c0,0,0-0.9-0.9-0.9c-3.5-5.3-7.1-11.5-9.8-17.7c-3.5-8-7.1-15.1-11.5-22.2c-2.7-3.5-4.4-7.1-7.1-10.6
		c-1.8-3.5-4.4-6.2-8-8.9c-6.2-4.4-13.3-6.2-19.5-2.7l-0.9,0.9c-7.1,4.4-11.5,14.2-15.1,22.2c-9.8,21.3-15.1,42.6-21.3,65.6
		l-2.7,13.3l-26.6,85.1l-36.3,80.7c-13.3,16.8-30.1,31-49.6,39.9c-19.5,9.8-40.8,14.2-62.1,15.1c-89.5,1.8-131.2-78.9-131.2-78.9
		C20.4,294.5,5.3,184.6,1.8,149.1C0,141.2,0,136.7,0,136.7c0-10.6,2.7-22.2,8.9-31c5.3-9.8,13.3-17.7,23-23
		c10.6-5.3,21.3-7.1,32.8-7.1c10.6,0,20.4,3.5,30.1,8.9c7.1,4.4,13.3,9.8,17.7,16c8,11.5,10.6,26.6,11.5,40.8
		C127.7,173.1,133.9,204.1,142.7,234.3z"/>
	
		<radialGradient id="SVGID_5_" cx="787.1691" cy="696.1374" r="1" gradientTransform="matrix(2.8883 118.1844 -83.9114 2.0505 56521.9727 -94280.6484)" gradientUnits="userSpaceOnUse">
		<stop  offset="0" style="stop-color:#227B60"/>
		<stop  offset="0.36" style="stop-color:#227B60;stop-opacity:0.63"/>
		<stop  offset="0.92" style="stop-color:#227B60;stop-opacity:0"/>
	</radialGradient>
	<path class="st4" d="M142.7,234.3c7.1,23.9,16,47.9,28.4,70c5.3,9.8,10.6,19.5,20.4,25.7l5.3,2.7c14.2,2.7,22.2-8.9,27.5-18.6
		c7.1-16.8,13.3-33.7,18.6-51.4c0.9-3.5,1.8-6.2,2.7-9.8c1.8-6.2,3.5-12.4,4.4-18.6l62.9-168.4c13.3-17.7,30.1-31.9,49.6-41.7
		c18.6-10.6,39.9-16,62.1-16c31,0,62.1,10.6,86.9,30.1c41.7,31,65.6,93.1,65.6,93.1c3.5,8,5.3,16.8,5.3,25.7c0,8-1.8,16-4.4,23.9
		c-3.5,7.1-8,14.2-13.3,20.4c-5.3,5.3-12.4,10.6-20.4,13.3c-7.1,2.7-16,4.4-23.9,4.4c-8.9,0-17.7-1.8-25.7-6.2
		c-8-3.5-15.1-9.8-21.3-16c0,0,0-0.9-0.9-0.9c-3.5-5.3-7.1-11.5-9.8-17.7c-3.5-8-7.1-15.1-11.5-22.2c-2.7-3.5-4.4-7.1-7.1-10.6
		c-1.8-3.5-4.4-6.2-8-8.9c-6.2-4.4-13.3-6.2-19.5-2.7l-0.9,0.9c-7.1,4.4-11.5,14.2-15.1,22.2c-9.8,21.3-15.1,42.6-21.3,65.6
		l-2.7,13.3l-26.6,85.1l-36.3,80.7c-13.3,16.8-30.1,31-49.6,39.9c-19.5,9.8-40.8,14.2-62.1,15.1c-89.5,1.8-131.2-78.9-131.2-78.9
		C20.4,294.5,5.3,184.6,1.8,149.1C0,141.2,0,136.7,0,136.7c0-10.6,2.7-22.2,8.9-31c5.3-9.8,13.3-17.7,23-23
		c10.6-5.3,21.3-7.1,32.8-7.1c10.6,0,20.4,3.5,30.1,8.9c7.1,4.4,13.3,9.8,17.7,16c8,11.5,10.6,26.6,11.5,40.8
		C127.7,173.1,133.9,204.1,142.7,234.3z"/>
	
		<radialGradient id="SVGID_6_" cx="792.7957" cy="696.2988" r="1" gradientTransform="matrix(2.3041 94.2589 -60.3262 1.4743 40565.25 -75570.1484)" gradientUnits="userSpaceOnUse">
		<stop  offset="0" style="stop-color:#20735A"/>
		<stop  offset="0.15" style="stop-color:#20745A;stop-opacity:0.93"/>
		<stop  offset="0.38" style="stop-color:#21755C;stop-opacity:0.74"/>
		<stop  offset="0.67" style="stop-color:#21785D;stop-opacity:0.43"/>
		<stop  offset="1" style="stop-color:#227B60;stop-opacity:0"/>
	</radialGradient>
	<path class="st5" d="M142.7,234.3c7.1,23.9,16,47.9,28.4,70c5.3,9.8,10.6,19.5,20.4,25.7l5.3,2.7c14.2,2.7,22.2-8.9,27.5-18.6
		c7.1-16.8,13.3-33.7,18.6-51.4c0.9-3.5,1.8-6.2,2.7-9.8c1.8-6.2,3.5-12.4,4.4-18.6l62.9-168.4c13.3-17.7,30.1-31.9,49.6-41.7
		c18.6-10.6,39.9-16,62.1-16c31,0,62.1,10.6,86.9,30.1c41.7,31,65.6,93.1,65.6,93.1c3.5,8,5.3,16.8,5.3,25.7c0,8-1.8,16-4.4,23.9
		c-3.5,7.1-8,14.2-13.3,20.4c-5.3,5.3-12.4,10.6-20.4,13.3c-7.1,2.7-16,4.4-23.9,4.4c-8.9,0-17.7-1.8-25.7-6.2
		c-8-3.5-15.1-9.8-21.3-16c0,0,0-0.9-0.9-0.9c-3.5-5.3-7.1-11.5-9.8-17.7c-3.5-8-7.1-15.1-11.5-22.2c-2.7-3.5-4.4-7.1-7.1-10.6
		c-1.8-3.5-4.4-6.2-8-8.9c-6.2-4.4-13.3-6.2-19.5-2.7l-0.9,0.9c-7.1,4.4-11.5,14.2-15.1,22.2c-9.8,21.3-15.1,42.6-21.3,65.6
		l-2.7,13.3l-26.6,85.1l-36.3,80.7c-13.3,16.8-30.1,31-49.6,39.9c-19.5,9.8-40.8,14.2-62.1,15.1c-89.5,1.8-131.2-78.9-131.2-78.9
		C20.4,294.5,5.3,184.6,1.8,149.1C0,141.2,0,136.7,0,136.7c0-10.6,2.7-22.2,8.9-31c5.3-9.8,13.3-17.7,23-23
		c10.6-5.3,21.3-7.1,32.8-7.1c10.6,0,20.4,3.5,30.1,8.9c7.1,4.4,13.3,9.8,17.7,16c8,11.5,10.6,26.6,11.5,40.8
		C127.7,173.1,133.9,204.1,142.7,234.3z"/>
	
		<radialGradient id="SVGID_7_" cx="772.148" cy="716.6934" r="1" gradientTransform="matrix(138.8227 61.2278 -45.9211 104.117 -73880.8984 -121697.2109)" gradientUnits="userSpaceOnUse">
		<stop  offset="0" style="stop-color:#227A61"/>
		<stop  offset="0.36" style="stop-color:#227A61;stop-opacity:0.56"/>
		<stop  offset="0.72" style="stop-color:#227A61;stop-opacity:0.16"/>
		<stop  offset="0.9" style="stop-color:#227A61;stop-opacity:0"/>
	</radialGradient>
	<path class="st6" d="M142.7,234.3c7.1,23.9,16,47.9,28.4,70c5.3,9.8,10.6,19.5,20.4,25.7l5.3,2.7c14.2,2.7,22.2-8.9,27.5-18.6
		c7.1-16.8,13.3-33.7,18.6-51.4c0.9-3.5,1.8-6.2,2.7-9.8c1.8-6.2,3.5-12.4,4.4-18.6l62.9-168.4c13.3-17.7,30.1-31.9,49.6-41.7
		c18.6-10.6,39.9-16,62.1-16c31,0,62.1,10.6,86.9,30.1c41.7,31,65.6,93.1,65.6,93.1c3.5,8,5.3,16.8,5.3,25.7c0,8-1.8,16-4.4,23.9
		c-3.5,7.1-8,14.2-13.3,20.4c-5.3,5.3-12.4,10.6-20.4,13.3c-7.1,2.7-16,4.4-23.9,4.4c-8.9,0-17.7-1.8-25.7-6.2
		c-8-3.5-15.1-9.8-21.3-16c0,0,0-0.9-0.9-0.9c-3.5-5.3-7.1-11.5-9.8-17.7c-3.5-8-7.1-15.1-11.5-22.2c-2.7-3.5-4.4-7.1-7.1-10.6
		c-1.8-3.5-4.4-6.2-8-8.9c-6.2-4.4-13.3-6.2-19.5-2.7l-0.9,0.9c-7.1,4.4-11.5,14.2-15.1,22.2c-9.8,21.3-15.1,42.6-21.3,65.6
		l-2.7,13.3l-26.6,85.1l-36.3,80.7c-13.3,16.8-30.1,31-49.6,39.9c-19.5,9.8-40.8,14.2-62.1,15.1c-89.5,1.8-131.2-78.9-131.2-78.9
		C20.4,294.5,5.3,184.6,1.8,149.1C0,141.2,0,136.7,0,136.7c0-10.6,2.7-22.2,8.9-31c5.3-9.8,13.3-17.7,23-23
		c10.6-5.3,21.3-7.1,32.8-7.1c10.6,0,20.4,3.5,30.1,8.9c7.1,4.4,13.3,9.8,17.7,16c8,11.5,10.6,26.6,11.5,40.8
		C127.7,173.1,133.9,204.1,142.7,234.3z"/>
	
		<radialGradient id="SVGID_8_" cx="772.5979" cy="707.1981" r="1" gradientTransform="matrix(165.1968 116.8466 -106.8395 151.0488 -51726.8789 -197143.7031)" gradientUnits="userSpaceOnUse">
		<stop  offset="0" style="stop-color:#3CD9C3"/>
		<stop  offset="7.000000e-02" style="stop-color:#3BD7C1;stop-opacity:0.9"/>
		<stop  offset="0.41" style="stop-color:#38CEB9;stop-opacity:0.42"/>
		<stop  offset="0.65" style="stop-color:#36C8B4;stop-opacity:0.12"/>
		<stop  offset="0.76" style="stop-color:#35C6B2;stop-opacity:0"/>
	</radialGradient>
	<path class="st7" d="M142.7,234.3c7.1,23.9,16,47.9,28.4,70c5.3,9.8,10.6,19.5,20.4,25.7l5.3,2.7c14.2,2.7,22.2-8.9,27.5-18.6
		c7.1-16.8,13.3-33.7,18.6-51.4c0.9-3.5,1.8-6.2,2.7-9.8c1.8-6.2,3.5-12.4,4.4-18.6l62.9-168.4c13.3-17.7,30.1-31.9,49.6-41.7
		c18.6-10.6,39.9-16,62.1-16c31,0,62.1,10.6,86.9,30.1c41.7,31,65.6,93.1,65.6,93.1c3.5,8,5.3,16.8,5.3,25.7c0,8-1.8,16-4.4,23.9
		c-3.5,7.1-8,14.2-13.3,20.4c-5.3,5.3-12.4,10.6-20.4,13.3c-7.1,2.7-16,4.4-23.9,4.4c-8.9,0-17.7-1.8-25.7-6.2
		c-8-3.5-15.1-9.8-21.3-16c0,0,0-0.9-0.9-0.9c-3.5-5.3-7.1-11.5-9.8-17.7c-3.5-8-7.1-15.1-11.5-22.2c-2.7-3.5-4.4-7.1-7.1-10.6
		c-1.8-3.5-4.4-6.2-8-8.9c-6.2-4.4-13.3-6.2-19.5-2.7l-0.9,0.9c-7.1,4.4-11.5,14.2-15.1,22.2c-9.8,21.3-15.1,42.6-21.3,65.6
		l-2.7,13.3l-26.6,85.1l-36.3,80.7c-13.3,16.8-30.1,31-49.6,39.9c-19.5,9.8-40.8,14.2-62.1,15.1c-89.5,1.8-131.2-78.9-131.2-78.9
		C20.4,294.5,5.3,184.6,1.8,149.1C0,141.2,0,136.7,0,136.7c0-10.6,2.7-22.2,8.9-31c5.3-9.8,13.3-17.7,23-23
		c10.6-5.3,21.3-7.1,32.8-7.1c10.6,0,20.4,3.5,30.1,8.9c7.1,4.4,13.3,9.8,17.7,16c8,11.5,10.6,26.6,11.5,40.8
		C127.7,173.1,133.9,204.1,142.7,234.3z"/>
	
		<radialGradient id="SVGID_9_" cx="765.0427" cy="695.8087" r="1" gradientTransform="matrix(29348.8477 20758.9258 -14567.5645 20595.5391 -12648706 -30662906)" gradientUnits="userSpaceOnUse">
		<stop  offset="0" style="stop-color:#3CD9C3"/>
		<stop  offset="7.000000e-02" style="stop-color:#3BD7C1;stop-opacity:0.9"/>
		<stop  offset="0.41" style="stop-color:#38CEB9;stop-opacity:0.42"/>
		<stop  offset="0.65" style="stop-color:#36C8B4;stop-opacity:0.12"/>
		<stop  offset="0.76" style="stop-color:#35C6B2;stop-opacity:0"/>
	</radialGradient>
	<path class="st8" d="M142.7,234.3c7.1,23.9,16,47.9,28.4,70c5.3,9.8,10.6,19.5,20.4,25.7l5.3,2.7c14.2,2.7,22.2-8.9,27.5-18.6
		c7.1-16.8,13.3-33.7,18.6-51.4c0.9-3.5,1.8-6.2,2.7-9.8c1.8-6.2,3.5-12.4,4.4-18.6l62.9-168.4c13.3-17.7,30.1-31.9,49.6-41.7
		c18.6-10.6,39.9-16,62.1-16c31,0,62.1,10.6,86.9,30.1c41.7,31,65.6,93.1,65.6,93.1c3.5,8,5.3,16.8,5.3,25.7c0,8-1.8,16-4.4,23.9
		c-3.5,7.1-8,14.2-13.3,20.4c-5.3,5.3-12.4,10.6-20.4,13.3c-7.1,2.7-16,4.4-23.9,4.4c-8.9,0-17.7-1.8-25.7-6.2
		c-8-3.5-15.1-9.8-21.3-16c0,0,0-0.9-0.9-0.9c-3.5-5.3-7.1-11.5-9.8-17.7c-3.5-8-7.1-15.1-11.5-22.2c-2.7-3.5-4.4-7.1-7.1-10.6
		c-1.8-3.5-4.4-6.2-8-8.9c-6.2-4.4-13.3-6.2-19.5-2.7l-0.9,0.9c-7.1,4.4-11.5,14.2-15.1,22.2c-9.8,21.3-15.1,42.6-21.3,65.6
		l-2.7,13.3l-26.6,85.1l-36.3,80.7c-13.3,16.8-30.1,31-49.6,39.9c-19.5,9.8-40.8,14.2-62.1,15.1c-89.5,1.8-131.2-78.9-131.2-78.9
		C20.4,294.5,5.3,184.6,1.8,149.1C0,141.2,0,136.7,0,136.7c0-10.6,2.7-22.2,8.9-31c5.3-9.8,13.3-17.7,23-23
		c10.6-5.3,21.3-7.1,32.8-7.1c10.6,0,20.4,3.5,30.1,8.9c7.1,4.4,13.3,9.8,17.7,16c8,11.5,10.6,26.6,11.5,40.8
		C127.7,173.1,133.9,204.1,142.7,234.3z"/>
	
		<radialGradient id="SVGID_10_" cx="779.3857" cy="693.3312" r="1" gradientTransform="matrix(-33.9663 175.1968 -216.4956 -41.9725 177004.4219 -107206.7656)" gradientUnits="userSpaceOnUse">
		<stop  offset="0" style="stop-color:#237F66;stop-opacity:0.8"/>
		<stop  offset="6.000000e-02" style="stop-color:#2C8C70;stop-opacity:0.65"/>
		<stop  offset="0.21" style="stop-color:#3DA785;stop-opacity:0.37"/>
		<stop  offset="0.35" style="stop-color:#4ABA93;stop-opacity:0.17"/>
		<stop  offset="0.47" style="stop-color:#51C59C;stop-opacity:4.000000e-02"/>
		<stop  offset="0.56" style="stop-color:#54C99F;stop-opacity:0"/>
	</radialGradient>
	<path class="st9" d="M142.7,234.3c7.1,23.9,16,47.9,28.4,70c5.3,9.8,10.6,19.5,20.4,25.7l5.3,2.7c14.2,2.7,22.2-8.9,27.5-18.6
		c7.1-16.8,13.3-33.7,18.6-51.4c0.9-3.5,1.8-6.2,2.7-9.8c1.8-6.2,3.5-12.4,4.4-18.6l62.9-168.4c13.3-17.7,30.1-31.9,49.6-41.7
		c18.6-10.6,39.9-16,62.1-16c31,0,62.1,10.6,86.9,30.1c41.7,31,65.6,93.1,65.6,93.1c3.5,8,5.3,16.8,5.3,25.7c0,8-1.8,16-4.4,23.9
		c-3.5,7.1-8,14.2-13.3,20.4c-5.3,5.3-12.4,10.6-20.4,13.3c-7.1,2.7-16,4.4-23.9,4.4c-8.9,0-17.7-1.8-25.7-6.2
		c-8-3.5-15.1-9.8-21.3-16c0,0,0-0.9-0.9-0.9c-3.5-5.3-7.1-11.5-9.8-17.7c-3.5-8-7.1-15.1-11.5-22.2c-2.7-3.5-4.4-7.1-7.1-10.6
		c-1.8-3.5-4.4-6.2-8-8.9c-6.2-4.4-13.3-6.2-19.5-2.7l-0.9,0.9c-7.1,4.4-11.5,14.2-15.1,22.2c-9.8,21.3-15.1,42.6-21.3,65.6
		l-2.7,13.3l-26.6,85.1l-36.3,80.7c-13.3,16.8-30.1,31-49.6,39.9c-19.5,9.8-40.8,14.2-62.1,15.1c-89.5,1.8-131.2-78.9-131.2-78.9
		C20.4,294.5,5.3,184.6,1.8,149.1C0,141.2,0,136.7,0,136.7c0-10.6,2.7-22.2,8.9-31c5.3-9.8,13.3-17.7,23-23
		c10.6-5.3,21.3-7.1,32.8-7.1c10.6,0,20.4,3.5,30.1,8.9c7.1,4.4,13.3,9.8,17.7,16c8,11.5,10.6,26.6,11.5,40.8
		C127.7,173.1,133.9,204.1,142.7,234.3z"/>
	
		<radialGradient id="SVGID_11_" cx="756.368" cy="702.3893" r="1" gradientTransform="matrix(147.3227 -180.7642 195.2252 159.1082 -248224.8594 25215.4883)" gradientUnits="userSpaceOnUse">
		<stop  offset="0" style="stop-color:#167C8A"/>
		<stop  offset="4.000000e-02" style="stop-color:#167C8A;stop-opacity:0.93"/>
		<stop  offset="0.33" style="stop-color:#177F8D;stop-opacity:0.43"/>
		<stop  offset="0.54" style="stop-color:#17818F;stop-opacity:0.12"/>
		<stop  offset="0.65" style="stop-color:#178290;stop-opacity:0"/>
	</radialGradient>
	<path class="st10" d="M142.7,234.3c7.1,23.9,16,47.9,28.4,70c5.3,9.8,10.6,19.5,20.4,25.7l5.3,2.7c14.2,2.7,22.2-8.9,27.5-18.6
		c7.1-16.8,13.3-33.7,18.6-51.4c0.9-3.5,1.8-6.2,2.7-9.8c1.8-6.2,3.5-12.4,4.4-18.6l62.9-168.4c13.3-17.7,30.1-31.9,49.6-41.7
		c18.6-10.6,39.9-16,62.1-16c31,0,62.1,10.6,86.9,30.1c41.7,31,65.6,93.1,65.6,93.1c3.5,8,5.3,16.8,5.3,25.7c0,8-1.8,16-4.4,23.9
		c-3.5,7.1-8,14.2-13.3,20.4c-5.3,5.3-12.4,10.6-20.4,13.3c-7.1,2.7-16,4.4-23.9,4.4c-8.9,0-17.7-1.8-25.7-6.2
		c-8-3.5-15.1-9.8-21.3-16c0,0,0-0.9-0.9-0.9c-3.5-5.3-7.1-11.5-9.8-17.7c-3.5-8-7.1-15.1-11.5-22.2c-2.7-3.5-4.4-7.1-7.1-10.6
		c-1.8-3.5-4.4-6.2-8-8.9c-6.2-4.4-13.3-6.2-19.5-2.7l-0.9,0.9c-7.1,4.4-11.5,14.2-15.1,22.2c-9.8,21.3-15.1,42.6-21.3,65.6
		l-2.7,13.3l-26.6,85.1l-36.3,80.7c-13.3,16.8-30.1,31-49.6,39.9c-19.5,9.8-40.8,14.2-62.1,15.1c-89.5,1.8-131.2-78.9-131.2-78.9
		C20.4,294.5,5.3,184.6,1.8,149.1C0,141.2,0,136.7,0,136.7c0-10.6,2.7-22.2,8.9-31c5.3-9.8,13.3-17.7,23-23
		c10.6-5.3,21.3-7.1,32.8-7.1c10.6,0,20.4,3.5,30.1,8.9c7.1,4.4,13.3,9.8,17.7,16c8,11.5,10.6,26.6,11.5,40.8
		C127.7,173.1,133.9,204.1,142.7,234.3z"/>
	
		<radialGradient id="SVGID_12_" cx="759.063" cy="708.2228" r="1" gradientTransform="matrix(193.6348 -119.4043 94.3298 152.9716 -213472.3438 -17432.3242)" gradientUnits="userSpaceOnUse">
		<stop  offset="5.000000e-02" style="stop-color:#177D87"/>
		<stop  offset="0.11" style="stop-color:#177E89;stop-opacity:0.8"/>
		<stop  offset="0.21" style="stop-color:#177F8B;stop-opacity:0.52"/>
		<stop  offset="0.32" style="stop-color:#17818D;stop-opacity:0.29"/>
		<stop  offset="0.42" style="stop-color:#17818F;stop-opacity:0.13"/>
		<stop  offset="0.51" style="stop-color:#178290;stop-opacity:3.000000e-02"/>
		<stop  offset="0.6" style="stop-color:#178290;stop-opacity:0"/>
	</radialGradient>
	<path class="st11" d="M142.7,234.3c7.1,23.9,16,47.9,28.4,70c5.3,9.8,10.6,19.5,20.4,25.7l5.3,2.7c14.2,2.7,22.2-8.9,27.5-18.6
		c7.1-16.8,13.3-33.7,18.6-51.4c0.9-3.5,1.8-6.2,2.7-9.8c1.8-6.2,3.5-12.4,4.4-18.6l62.9-168.4c13.3-17.7,30.1-31.9,49.6-41.7
		c18.6-10.6,39.9-16,62.1-16c31,0,62.1,10.6,86.9,30.1c41.7,31,65.6,93.1,65.6,93.1c3.5,8,5.3,16.8,5.3,25.7c0,8-1.8,16-4.4,23.9
		c-3.5,7.1-8,14.2-13.3,20.4c-5.3,5.3-12.4,10.6-20.4,13.3c-7.1,2.7-16,4.4-23.9,4.4c-8.9,0-17.7-1.8-25.7-6.2
		c-8-3.5-15.1-9.8-21.3-16c0,0,0-0.9-0.9-0.9c-3.5-5.3-7.1-11.5-9.8-17.7c-3.5-8-7.1-15.1-11.5-22.2c-2.7-3.5-4.4-7.1-7.1-10.6
		c-1.8-3.5-4.4-6.2-8-8.9c-6.2-4.4-13.3-6.2-19.5-2.7l-0.9,0.9c-7.1,4.4-11.5,14.2-15.1,22.2c-9.8,21.3-15.1,42.6-21.3,65.6
		l-2.7,13.3l-26.6,85.1l-36.3,80.7c-13.3,16.8-30.1,31-49.6,39.9c-19.5,9.8-40.8,14.2-62.1,15.1c-89.5,1.8-131.2-78.9-131.2-78.9
		C20.4,294.5,5.3,184.6,1.8,149.1C0,141.2,0,136.7,0,136.7c0-10.6,2.7-22.2,8.9-31c5.3-9.8,13.3-17.7,23-23
		c10.6-5.3,21.3-7.1,32.8-7.1c10.6,0,20.4,3.5,30.1,8.9c7.1,4.4,13.3,9.8,17.7,16c8,11.5,10.6,26.6,11.5,40.8
		C127.7,173.1,133.9,204.1,142.7,234.3z"/>
	
		<radialGradient id="SVGID_13_" cx="750.1644" cy="679.9727" r="1" gradientTransform="matrix(-88.0949 -103.0036 81.1064 -69.367 11203.4082 124704.7109)" gradientUnits="userSpaceOnUse">
		<stop  offset="0.26" style="stop-color:#177F8A"/>
		<stop  offset="0.27" style="stop-color:#177F8A;stop-opacity:0.98"/>
		<stop  offset="0.38" style="stop-color:#17808C;stop-opacity:0.68"/>
		<stop  offset="0.5" style="stop-color:#17818D;stop-opacity:0.43"/>
		<stop  offset="0.62" style="stop-color:#17818F;stop-opacity:0.24"/>
		<stop  offset="0.74" style="stop-color:#17828F;stop-opacity:0.11"/>
		<stop  offset="0.86" style="stop-color:#178290;stop-opacity:3.000000e-02"/>
		<stop  offset="1" style="stop-color:#178290;stop-opacity:0"/>
	</radialGradient>
	<path class="st12" d="M142.7,234.3c7.1,23.9,16,47.9,28.4,70c5.3,9.8,10.6,19.5,20.4,25.7l5.3,2.7c14.2,2.7,22.2-8.9,27.5-18.6
		c7.1-16.8,13.3-33.7,18.6-51.4c0.9-3.5,1.8-6.2,2.7-9.8c1.8-6.2,3.5-12.4,4.4-18.6l62.9-168.4c13.3-17.7,30.1-31.9,49.6-41.7
		c18.6-10.6,39.9-16,62.1-16c31,0,62.1,10.6,86.9,30.1c41.7,31,65.6,93.1,65.6,93.1c3.5,8,5.3,16.8,5.3,25.7c0,8-1.8,16-4.4,23.9
		c-3.5,7.1-8,14.2-13.3,20.4c-5.3,5.3-12.4,10.6-20.4,13.3c-7.1,2.7-16,4.4-23.9,4.4c-8.9,0-17.7-1.8-25.7-6.2
		c-8-3.5-15.1-9.8-21.3-16c0,0,0-0.9-0.9-0.9c-3.5-5.3-7.1-11.5-9.8-17.7c-3.5-8-7.1-15.1-11.5-22.2c-2.7-3.5-4.4-7.1-7.1-10.6
		c-1.8-3.5-4.4-6.2-8-8.9c-6.2-4.4-13.3-6.2-19.5-2.7l-0.9,0.9c-7.1,4.4-11.5,14.2-15.1,22.2c-9.8,21.3-15.1,42.6-21.3,65.6
		l-2.7,13.3l-26.6,85.1l-36.3,80.7c-13.3,16.8-30.1,31-49.6,39.9c-19.5,9.8-40.8,14.2-62.1,15.1c-89.5,1.8-131.2-78.9-131.2-78.9
		C20.4,294.5,5.3,184.6,1.8,149.1C0,141.2,0,136.7,0,136.7c0-10.6,2.7-22.2,8.9-31c5.3-9.8,13.3-17.7,23-23
		c10.6-5.3,21.3-7.1,32.8-7.1c10.6,0,20.4,3.5,30.1,8.9c7.1,4.4,13.3,9.8,17.7,16c8,11.5,10.6,26.6,11.5,40.8
		C127.7,173.1,133.9,204.1,142.7,234.3z"/>
	
		<radialGradient id="SVGID_14_" cx="762.2976" cy="675.2869" r="1" gradientTransform="matrix(-126.2184 -15.2518 15.2518 -126.2184 86151.3516 97167.3594)" gradientUnits="userSpaceOnUse">
		<stop  offset="0" style="stop-color:#13656E"/>
		<stop  offset="0.11" style="stop-color:#13646E;stop-opacity:0.73"/>
		<stop  offset="0.27" style="stop-color:#12646E;stop-opacity:0.41"/>
		<stop  offset="0.42" style="stop-color:#12636E;stop-opacity:0.18"/>
		<stop  offset="0.55" style="stop-color:#12636E;stop-opacity:5.000000e-02"/>
		<stop  offset="0.66" style="stop-color:#12636E;stop-opacity:0"/>
	</radialGradient>
	<path class="st13" d="M142.7,234.3c7.1,23.9,16,47.9,28.4,70c5.3,9.8,10.6,19.5,20.4,25.7l5.3,2.7c14.2,2.7,22.2-8.9,27.5-18.6
		c7.1-16.8,13.3-33.7,18.6-51.4c0.9-3.5,1.8-6.2,2.7-9.8c1.8-6.2,3.5-12.4,4.4-18.6l62.9-168.4c13.3-17.7,30.1-31.9,49.6-41.7
		c18.6-10.6,39.9-16,62.1-16c31,0,62.1,10.6,86.9,30.1c41.7,31,65.6,93.1,65.6,93.1c3.5,8,5.3,16.8,5.3,25.7c0,8-1.8,16-4.4,23.9
		c-3.5,7.1-8,14.2-13.3,20.4c-5.3,5.3-12.4,10.6-20.4,13.3c-7.1,2.7-16,4.4-23.9,4.4c-8.9,0-17.7-1.8-25.7-6.2
		c-8-3.5-15.1-9.8-21.3-16c0,0,0-0.9-0.9-0.9c-3.5-5.3-7.1-11.5-9.8-17.7c-3.5-8-7.1-15.1-11.5-22.2c-2.7-3.5-4.4-7.1-7.1-10.6
		c-1.8-3.5-4.4-6.2-8-8.9c-6.2-4.4-13.3-6.2-19.5-2.7l-0.9,0.9c-7.1,4.4-11.5,14.2-15.1,22.2c-9.8,21.3-15.1,42.6-21.3,65.6
		l-2.7,13.3l-26.6,85.1l-36.3,80.7c-13.3,16.8-30.1,31-49.6,39.9c-19.5,9.8-40.8,14.2-62.1,15.1c-89.5,1.8-131.2-78.9-131.2-78.9
		C20.4,294.5,5.3,184.6,1.8,149.1C0,141.2,0,136.7,0,136.7c0-10.6,2.7-22.2,8.9-31c5.3-9.8,13.3-17.7,23-23
		c10.6-5.3,21.3-7.1,32.8-7.1c10.6,0,20.4,3.5,30.1,8.9c7.1,4.4,13.3,9.8,17.7,16c8,11.5,10.6,26.6,11.5,40.8
		C127.7,173.1,133.9,204.1,142.7,234.3z"/>
	
		<radialGradient id="SVGID_15_" cx="739.1372" cy="678.8838" r="1" gradientTransform="matrix(-43.539 -77.5213 65.1179 -36.5727 -11794.7441 82454.3125)" gradientUnits="userSpaceOnUse">
		<stop  offset="0.13" style="stop-color:#146A73"/>
		<stop  offset="0.24" style="stop-color:#156F79;stop-opacity:0.79"/>
		<stop  offset="0.45" style="stop-color:#167783;stop-opacity:0.45"/>
		<stop  offset="0.65" style="stop-color:#167D8A;stop-opacity:0.2"/>
		<stop  offset="0.82" style="stop-color:#17818E;stop-opacity:5.000000e-02"/>
		<stop  offset="0.95" style="stop-color:#178290;stop-opacity:0"/>
	</radialGradient>
	<path class="st14" d="M142.7,234.3c7.1,23.9,16,47.9,28.4,70c5.3,9.8,10.6,19.5,20.4,25.7l5.3,2.7c14.2,2.7,22.2-8.9,27.5-18.6
		c7.1-16.8,13.3-33.7,18.6-51.4c0.9-3.5,1.8-6.2,2.7-9.8c1.8-6.2,3.5-12.4,4.4-18.6l62.9-168.4c13.3-17.7,30.1-31.9,49.6-41.7
		c18.6-10.6,39.9-16,62.1-16c31,0,62.1,10.6,86.9,30.1c41.7,31,65.6,93.1,65.6,93.1c3.5,8,5.3,16.8,5.3,25.7c0,8-1.8,16-4.4,23.9
		c-3.5,7.1-8,14.2-13.3,20.4c-5.3,5.3-12.4,10.6-20.4,13.3c-7.1,2.7-16,4.4-23.9,4.4c-8.9,0-17.7-1.8-25.7-6.2
		c-8-3.5-15.1-9.8-21.3-16c0,0,0-0.9-0.9-0.9c-3.5-5.3-7.1-11.5-9.8-17.7c-3.5-8-7.1-15.1-11.5-22.2c-2.7-3.5-4.4-7.1-7.1-10.6
		c-1.8-3.5-4.4-6.2-8-8.9c-6.2-4.4-13.3-6.2-19.5-2.7l-0.9,0.9c-7.1,4.4-11.5,14.2-15.1,22.2c-9.8,21.3-15.1,42.6-21.3,65.6
		l-2.7,13.3l-26.6,85.1l-36.3,80.7c-13.3,16.8-30.1,31-49.6,39.9c-19.5,9.8-40.8,14.2-62.1,15.1c-89.5,1.8-131.2-78.9-131.2-78.9
		C20.4,294.5,5.3,184.6,1.8,149.1C0,141.2,0,136.7,0,136.7c0-10.6,2.7-22.2,8.9-31c5.3-9.8,13.3-17.7,23-23
		c10.6-5.3,21.3-7.1,32.8-7.1c10.6,0,20.4,3.5,30.1,8.9c7.1,4.4,13.3,9.8,17.7,16c8,11.5,10.6,26.6,11.5,40.8
		C127.7,173.1,133.9,204.1,142.7,234.3z"/>
	
		<radialGradient id="SVGID_16_" cx="739.2206" cy="718.2146" r="1" gradientTransform="matrix(46.7793 -69.3333 54.9273 37.0594 -73818.1797 24922.4121)" gradientUnits="userSpaceOnUse">
		<stop  offset="0" style="stop-color:#198E9C"/>
		<stop  offset="0.1" style="stop-color:#198E9C;stop-opacity:0.87"/>
		<stop  offset="0.41" style="stop-color:#198E9C;stop-opacity:0.5"/>
		<stop  offset="0.67" style="stop-color:#198E9C;stop-opacity:0.23"/>
		<stop  offset="0.88" style="stop-color:#198E9C;stop-opacity:6.000000e-02"/>
		<stop  offset="1" style="stop-color:#198E9C;stop-opacity:0"/>
	</radialGradient>
	<path class="st15" d="M142.7,234.3c7.1,23.9,16,47.9,28.4,70c5.3,9.8,10.6,19.5,20.4,25.7l5.3,2.7c14.2,2.7,22.2-8.9,27.5-18.6
		c7.1-16.8,13.3-33.7,18.6-51.4c0.9-3.5,1.8-6.2,2.7-9.8c1.8-6.2,3.5-12.4,4.4-18.6l62.9-168.4c13.3-17.7,30.1-31.9,49.6-41.7
		c18.6-10.6,39.9-16,62.1-16c31,0,62.1,10.6,86.9,30.1c41.7,31,65.6,93.1,65.6,93.1c3.5,8,5.3,16.8,5.3,25.7c0,8-1.8,16-4.4,23.9
		c-3.5,7.1-8,14.2-13.3,20.4c-5.3,5.3-12.4,10.6-20.4,13.3c-7.1,2.7-16,4.4-23.9,4.4c-8.9,0-17.7-1.8-25.7-6.2
		c-8-3.5-15.1-9.8-21.3-16c0,0,0-0.9-0.9-0.9c-3.5-5.3-7.1-11.5-9.8-17.7c-3.5-8-7.1-15.1-11.5-22.2c-2.7-3.5-4.4-7.1-7.1-10.6
		c-1.8-3.5-4.4-6.2-8-8.9c-6.2-4.4-13.3-6.2-19.5-2.7l-0.9,0.9c-7.1,4.4-11.5,14.2-15.1,22.2c-9.8,21.3-15.1,42.6-21.3,65.6
		l-2.7,13.3l-26.6,85.1l-36.3,80.7c-13.3,16.8-30.1,31-49.6,39.9c-19.5,9.8-40.8,14.2-62.1,15.1c-89.5,1.8-131.2-78.9-131.2-78.9
		C20.4,294.5,5.3,184.6,1.8,149.1C0,141.2,0,136.7,0,136.7c0-10.6,2.7-22.2,8.9-31c5.3-9.8,13.3-17.7,23-23
		c10.6-5.3,21.3-7.1,32.8-7.1c10.6,0,20.4,3.5,30.1,8.9c7.1,4.4,13.3,9.8,17.7,16c8,11.5,10.6,26.6,11.5,40.8
		C127.7,173.1,133.9,204.1,142.7,234.3z"/>
	
		<linearGradient id="SVGID_17_" gradientUnits="userSpaceOnUse" x1="774.9966" y1="990.2248" x2="799.1857" y2="1012.6098" gradientTransform="matrix(8.8652 0 0 8.8652 -6811.3057 -8780.4121)">
		<stop  offset="0.13" style="stop-color:#2BF9FF"/>
		<stop  offset="0.27" style="stop-color:#29F9FF;stop-opacity:0.64"/>
		<stop  offset="0.4" style="stop-color:#27FAFF;stop-opacity:0.3"/>
		<stop  offset="0.49" style="stop-color:#26FAFF;stop-opacity:8.000000e-02"/>
		<stop  offset="0.54" style="stop-color:#26FAFF;stop-opacity:0"/>
	</linearGradient>
	<path class="st16" d="M142.7,234.3c7.1,23.9,16,47.9,28.4,70c5.3,9.8,10.6,19.5,20.4,25.7l5.3,2.7c14.2,2.7,22.2-8.9,27.5-18.6
		c7.1-16.8,13.3-33.7,18.6-51.4c0.9-3.5,1.8-6.2,2.7-9.8c1.8-6.2,3.5-12.4,4.4-18.6l62.9-168.4c13.3-17.7,30.1-31.9,49.6-41.7
		c18.6-10.6,39.9-16,62.1-16c31,0,62.1,10.6,86.9,30.1c41.7,31,65.6,93.1,65.6,93.1c3.5,8,5.3,16.8,5.3,25.7c0,8-1.8,16-4.4,23.9
		c-3.5,7.1-8,14.2-13.3,20.4c-5.3,5.3-12.4,10.6-20.4,13.3c-7.1,2.7-16,4.4-23.9,4.4c-8.9,0-17.7-1.8-25.7-6.2
		c-8-3.5-15.1-9.8-21.3-16c0,0,0-0.9-0.9-0.9c-3.5-5.3-7.1-11.5-9.8-17.7c-3.5-8-7.1-15.1-11.5-22.2c-2.7-3.5-4.4-7.1-7.1-10.6
		c-1.8-3.5-4.4-6.2-8-8.9c-6.2-4.4-13.3-6.2-19.5-2.7l-0.9,0.9c-7.1,4.4-11.5,14.2-15.1,22.2c-9.8,21.3-15.1,42.6-21.3,65.6
		l-2.7,13.3l-26.6,85.1l-36.3,80.7c-13.3,16.8-30.1,31-49.6,39.9c-19.5,9.8-40.8,14.2-62.1,15.1c-89.5,1.8-131.2-78.9-131.2-78.9
		C20.4,294.5,5.3,184.6,1.8,149.1C0,141.2,0,136.7,0,136.7c0-10.6,2.7-22.2,8.9-31c5.3-9.8,13.3-17.7,23-23
		c10.6-5.3,21.3-7.1,32.8-7.1c10.6,0,20.4,3.5,30.1,8.9c7.1,4.4,13.3,9.8,17.7,16c8,11.5,10.6,26.6,11.5,40.8
		C127.7,173.1,133.9,204.1,142.7,234.3z"/>
	
		<linearGradient id="SVGID_18_" gradientUnits="userSpaceOnUse" x1="761.3323" y1="1026.7882" x2="789.5853" y2="1018.7783" gradientTransform="matrix(8.8652 0 0 8.8652 -6811.3057 -8780.4121)">
		<stop  offset="0" style="stop-color:#26FAFF"/>
		<stop  offset="6.000000e-02" style="stop-color:#26FAFF;stop-opacity:0.88"/>
		<stop  offset="0.24" style="stop-color:#26FAFF;stop-opacity:0.51"/>
		<stop  offset="0.39" style="stop-color:#26FAFF;stop-opacity:0.23"/>
		<stop  offset="0.5" style="stop-color:#26FAFF;stop-opacity:6.000000e-02"/>
		<stop  offset="0.55" style="stop-color:#26FAFF;stop-opacity:0"/>
	</linearGradient>
	<path class="st17" d="M142.7,234.3c7.1,23.9,16,47.9,28.4,70c5.3,9.8,10.6,19.5,20.4,25.7l5.3,2.7c14.2,2.7,22.2-8.9,27.5-18.6
		c7.1-16.8,13.3-33.7,18.6-51.4c0.9-3.5,1.8-6.2,2.7-9.8c1.8-6.2,3.5-12.4,4.4-18.6l62.9-168.4c13.3-17.7,30.1-31.9,49.6-41.7
		c18.6-10.6,39.9-16,62.1-16c31,0,62.1,10.6,86.9,30.1c41.7,31,65.6,93.1,65.6,93.1c3.5,8,5.3,16.8,5.3,25.7c0,8-1.8,16-4.4,23.9
		c-3.5,7.1-8,14.2-13.3,20.4c-5.3,5.3-12.4,10.6-20.4,13.3c-7.1,2.7-16,4.4-23.9,4.4c-8.9,0-17.7-1.8-25.7-6.2
		c-8-3.5-15.1-9.8-21.3-16c0,0,0-0.9-0.9-0.9c-3.5-5.3-7.1-11.5-9.8-17.7c-3.5-8-7.1-15.1-11.5-22.2c-2.7-3.5-4.4-7.1-7.1-10.6
		c-1.8-3.5-4.4-6.2-8-8.9c-6.2-4.4-13.3-6.2-19.5-2.7l-0.9,0.9c-7.1,4.4-11.5,14.2-15.1,22.2c-9.8,21.3-15.1,42.6-21.3,65.6
		l-2.7,13.3l-26.6,85.1l-36.3,80.7c-13.3,16.8-30.1,31-49.6,39.9c-19.5,9.8-40.8,14.2-62.1,15.1c-89.5,1.8-131.2-78.9-131.2-78.9
		C20.4,294.5,5.3,184.6,1.8,149.1C0,141.2,0,136.7,0,136.7c0-10.6,2.7-22.2,8.9-31c5.3-9.8,13.3-17.7,23-23
		c10.6-5.3,21.3-7.1,32.8-7.1c10.6,0,20.4,3.5,30.1,8.9c7.1,4.4,13.3,9.8,17.7,16c8,11.5,10.6,26.6,11.5,40.8
		C127.7,173.1,133.9,204.1,142.7,234.3z"/>
	
		<linearGradient id="SVGID_19_" gradientUnits="userSpaceOnUse" x1="768.8207" y1="1025.8052" x2="800.6617" y2="1014.4562" gradientTransform="matrix(8.8652 0 0 8.8652 -6811.3057 -8780.4121)">
		<stop  offset="0" style="stop-color:#21DEFF"/>
		<stop  offset="4.000000e-02" style="stop-color:#21DEFF;stop-opacity:0.88"/>
		<stop  offset="0.17" style="stop-color:#21DEFF;stop-opacity:0.51"/>
		<stop  offset="0.27" style="stop-color:#21DEFF;stop-opacity:0.23"/>
		<stop  offset="0.34" style="stop-color:#21DEFF;stop-opacity:6.000000e-02"/>
		<stop  offset="0.38" style="stop-color:#21DEFF;stop-opacity:0"/>
	</linearGradient>
	<path class="st18" d="M142.7,234.3c7.1,23.9,16,47.9,28.4,70c5.3,9.8,10.6,19.5,20.4,25.7l5.3,2.7c14.2,2.7,22.2-8.9,27.5-18.6
		c7.1-16.8,13.3-33.7,18.6-51.4c0.9-3.5,1.8-6.2,2.7-9.8c1.8-6.2,3.5-12.4,4.4-18.6l62.9-168.4c13.3-17.7,30.1-31.9,49.6-41.7
		c18.6-10.6,39.9-16,62.1-16c31,0,62.1,10.6,86.9,30.1c41.7,31,65.6,93.1,65.6,93.1c3.5,8,5.3,16.8,5.3,25.7c0,8-1.8,16-4.4,23.9
		c-3.5,7.1-8,14.2-13.3,20.4c-5.3,5.3-12.4,10.6-20.4,13.3c-7.1,2.7-16,4.4-23.9,4.4c-8.9,0-17.7-1.8-25.7-6.2
		c-8-3.5-15.1-9.8-21.3-16c0,0,0-0.9-0.9-0.9c-3.5-5.3-7.1-11.5-9.8-17.7c-3.5-8-7.1-15.1-11.5-22.2c-2.7-3.5-4.4-7.1-7.1-10.6
		c-1.8-3.5-4.4-6.2-8-8.9c-6.2-4.4-13.3-6.2-19.5-2.7l-0.9,0.9c-7.1,4.4-11.5,14.2-15.1,22.2c-9.8,21.3-15.1,42.6-21.3,65.6
		l-2.7,13.3l-26.6,85.1l-36.3,80.7c-13.3,16.8-30.1,31-49.6,39.9c-19.5,9.8-40.8,14.2-62.1,15.1c-89.5,1.8-131.2-78.9-131.2-78.9
		C20.4,294.5,5.3,184.6,1.8,149.1C0,141.2,0,136.7,0,136.7c0-10.6,2.7-22.2,8.9-31c5.3-9.8,13.3-17.7,23-23
		c10.6-5.3,21.3-7.1,32.8-7.1c10.6,0,20.4,3.5,30.1,8.9c7.1,4.4,13.3,9.8,17.7,16c8,11.5,10.6,26.6,11.5,40.8
		C127.7,173.1,133.9,204.1,142.7,234.3z"/>
	
		<linearGradient id="SVGID_20_" gradientUnits="userSpaceOnUse" x1="799.0713" y1="1009.3201" x2="816.8813" y2="1038.368" gradientTransform="matrix(8.8652 0 0 8.8652 -6811.3057 -8780.4121)">
		<stop  offset="0.62" style="stop-color:#21DEFF;stop-opacity:0"/>
		<stop  offset="0.66" style="stop-color:#21DEFF;stop-opacity:6.000000e-02"/>
		<stop  offset="0.73" style="stop-color:#21DEFF;stop-opacity:0.23"/>
		<stop  offset="0.83" style="stop-color:#21DEFF;stop-opacity:0.51"/>
		<stop  offset="0.96" style="stop-color:#21DEFF;stop-opacity:0.88"/>
		<stop  offset="1" style="stop-color:#21DEFF"/>
	</linearGradient>
	<path class="st19" d="M142.7,234.3c7.1,23.9,16,47.9,28.4,70c5.3,9.8,10.6,19.5,20.4,25.7l5.3,2.7c14.2,2.7,22.2-8.9,27.5-18.6
		c7.1-16.8,13.3-33.7,18.6-51.4c0.9-3.5,1.8-6.2,2.7-9.8c1.8-6.2,3.5-12.4,4.4-18.6l62.9-168.4c13.3-17.7,30.1-31.9,49.6-41.7
		c18.6-10.6,39.9-16,62.1-16c31,0,62.1,10.6,86.9,30.1c41.7,31,65.6,93.1,65.6,93.1c3.5,8,5.3,16.8,5.3,25.7c0,8-1.8,16-4.4,23.9
		c-3.5,7.1-8,14.2-13.3,20.4c-5.3,5.3-12.4,10.6-20.4,13.3c-7.1,2.7-16,4.4-23.9,4.4c-8.9,0-17.7-1.8-25.7-6.2
		c-8-3.5-15.1-9.8-21.3-16c0,0,0-0.9-0.9-0.9c-3.5-5.3-7.1-11.5-9.8-17.7c-3.5-8-7.1-15.1-11.5-22.2c-2.7-3.5-4.4-7.1-7.1-10.6
		c-1.8-3.5-4.4-6.2-8-8.9c-6.2-4.4-13.3-6.2-19.5-2.7l-0.9,0.9c-7.1,4.4-11.5,14.2-15.1,22.2c-9.8,21.3-15.1,42.6-21.3,65.6
		l-2.7,13.3l-26.6,85.1l-36.3,80.7c-13.3,16.8-30.1,31-49.6,39.9c-19.5,9.8-40.8,14.2-62.1,15.1c-89.5,1.8-131.2-78.9-131.2-78.9
		C20.4,294.5,5.3,184.6,1.8,149.1C0,141.2,0,136.7,0,136.7c0-10.6,2.7-22.2,8.9-31c5.3-9.8,13.3-17.7,23-23
		c10.6-5.3,21.3-7.1,32.8-7.1c10.6,0,20.4,3.5,30.1,8.9c7.1,4.4,13.3,9.8,17.7,16c8,11.5,10.6,26.6,11.5,40.8
		C127.7,173.1,133.9,204.1,142.7,234.3z"/>
	
		<linearGradient id="SVGID_21_" gradientUnits="userSpaceOnUse" x1="818.8925" y1="1020.1783" x2="816.0925" y2="1006.5134" gradientTransform="matrix(8.8652 0 0 8.8652 -6811.3057 -8780.4121)">
		<stop  offset="0" style="stop-color:#44B044"/>
		<stop  offset="0.11" style="stop-color:#44B044;stop-opacity:0.8"/>
		<stop  offset="0.27" style="stop-color:#44B044;stop-opacity:0.52"/>
		<stop  offset="0.43" style="stop-color:#44B044;stop-opacity:0.29"/>
		<stop  offset="0.58" style="stop-color:#44B044;stop-opacity:0.13"/>
		<stop  offset="0.7" style="stop-color:#44B044;stop-opacity:3.000000e-02"/>
		<stop  offset="0.8" style="stop-color:#44B044;stop-opacity:0"/>
	</linearGradient>
	<path class="st20" d="M272.2,171.3L312.1,64c13.3-17.7,30.1-31.9,49.6-41.7c19.5-8.9,40.8-14.2,62.9-14.2c31,0,62.1,10.6,86.9,30.1
		c41.7,31,65.6,93.1,65.6,93.1c3.5,8,5.3,16.8,5.3,25.7c0,8-1.8,16-4.4,23.9c-3.5,7.1-8,14.2-13.3,20.4
		c-5.3,5.3-12.4,10.6-20.4,13.3c-7.1,2.7-16,4.4-23.9,4.4c-8.9,0-17.7-1.8-25.7-6.2c-8-3.5-15.1-9.8-21.3-16c0,0,0-0.9-0.9-0.9
		c-3.5-5.3-7.1-11.5-9.8-17.7c-3.5-8-7.1-15.1-11.5-22.2c-2.7-3.5-4.4-7.1-7.1-10.6c-1.8-3.5-4.4-6.2-8-8.9
		c-6.2-4.4-13.3-6.2-19.5-2.7l-0.9,0.9c-7.1,4.4-11.5,14.2-15.1,22.2c-9.8,21.3-15.1,42.6-21.3,65.6l-2.7,13.3l-26.6,85.1
		L272.2,171.3z"/>
	
		<linearGradient id="SVGID_22_" gradientUnits="userSpaceOnUse" x1="779.8181" y1="1005.9561" x2="838.7761" y2="1025.474" gradientTransform="matrix(8.8652 0 0 8.8652 -6811.3057 -8780.4121)">
		<stop  offset="0" style="stop-color:#3066FB"/>
		<stop  offset="0.38" style="stop-color:#2F64F7"/>
		<stop  offset="0.74" style="stop-color:#2857D9"/>
		<stop  offset="1" style="stop-color:#3C7EFF"/>
	</linearGradient>
	<path class="st21" d="M562.9,75.6c-5.3,0-10.6,0.9-15.1,1.8c11.5,16.8,21.3,34.6,29.3,53.2c3.5,8,5.3,16.8,5.3,25.7
		c0,8-1.8,16-4.4,23.9c-3.5,7.1-8,14.2-13.3,20.4c-5.3,6.2-12.4,10.6-20.4,13.3c-7.1,2.7-16,4.4-23.9,4.4c-10.6,0-22.2-2.7-31-8.9
		l-6.2,23.9c-11.5,39-19.5,53.2-19.5,53.2c-4.4,10.6-9.8,20.4-16,30.1c-4.4,6.2-9.8,12.4-16.8,15.1c-2.7,0.9-5.3,0.9-8,0.9
		c-2.7,0-5.3-0.9-8-2.7c-4.4-3.5-8.9-8.9-11.5-14.2c-3.5-6.2-6.2-12.4-8.9-18.6c-5.3-13.3-14.2-46.1-14.2-46.1l-8.9-34.6l-8.9-34.6
		l-6.2-23c-16-59.4-39-88.7-39-88.7c-17.7-25.7-43.4-44.3-72.7-55C211,2.9,175.5,10,175.5,10C119.7,20.6,90.4,58.7,78,77.3
		c6.2,1.8,11.5,3.5,16.8,7.1c7.1,4.4,13.3,9.8,17.7,16c8,11.5,10.6,26.6,11.5,40.8c3.5,31,9.8,61.2,17.7,91.3
		c18.6-62.9,41.7-92.2,41.7-92.2c2.7-3.5,5.3-6.2,8.9-8c1.8-0.9,3.5-1.8,6.2-1.8c3.5,0,8,0.9,10.6,2.7c0.9,0,0.9,0.9,1.8,0.9
		c2.7,2.7,5.3,5.3,8,8.9c4.4,8.9,8.9,16.8,12.4,26.6c7.1,19.5,13.3,44.3,13.3,44.3l17.7,70.9c13.3,48.8,23.9,71.8,23.9,71.8
		c27.5,62.9,69.1,80.7,69.1,80.7c20.4,10.6,43.4,16.8,66.5,17.7c22.2,0.9,44.3-3.5,63.8-13.3c21.3-10.6,40.8-26.6,55.9-45.2
		c9.8-11.5,24.8-39.9,24.8-39.9c16.8-32.8,29.3-67.4,38.1-102.8c6.2-22.2,10.6-44.3,14.2-67.4c1.8-11.5,3.5-22.2,4.4-33.7
		c1.8-10.6,1.8-21.3-0.9-31.9c-0.9-1.8-0.9-3.5-1.8-5.3c-5.3-13.3-15.1-23.9-27.5-31C584.2,78.2,573.6,75.6,562.9,75.6L562.9,75.6z"
		/>
	
		<radialGradient id="SVGID_23_" cx="774.2529" cy="693.4201" r="1" gradientTransform="matrix(-42.2323 276.3094 -182.3644 -27.8732 159624.625 -194388.1719)" gradientUnits="userSpaceOnUse">
		<stop  offset="0" style="stop-color:#1A3D9C"/>
		<stop  offset="0.4" style="stop-color:#1A3D9C;stop-opacity:0.42"/>
		<stop  offset="0.7" style="stop-color:#1A3D9C;stop-opacity:0"/>
	</radialGradient>
	<path class="st22" d="M562.9,75.6c-5.3,0-10.6,0.9-15.1,1.8c11.5,16.8,21.3,34.6,29.3,53.2c3.5,8,5.3,16.8,5.3,25.7
		c0,8-1.8,16-4.4,23.9c-3.5,7.1-8,14.2-13.3,20.4c-5.3,6.2-12.4,10.6-20.4,13.3c-7.1,2.7-16,4.4-23.9,4.4c-10.6,0-22.2-2.7-31-8.9
		l-6.2,23.9c-11.5,39-19.5,53.2-19.5,53.2c-4.4,10.6-9.8,20.4-16,30.1c-4.4,6.2-9.8,12.4-16.8,15.1c-2.7,0.9-5.3,0.9-8,0.9
		c-2.7,0-5.3-0.9-8-2.7c-4.4-3.5-8.9-8.9-11.5-14.2c-3.5-6.2-6.2-12.4-8.9-18.6c-5.3-13.3-14.2-46.1-14.2-46.1l-8.9-34.6l-8.9-34.6
		l-6.2-23c-16-59.4-39-88.7-39-88.7c-17.7-25.7-43.4-44.3-72.7-55C211,2.9,175.5,10,175.5,10C119.7,20.6,90.4,58.7,78,77.3
		c6.2,1.8,11.5,3.5,16.8,7.1c7.1,4.4,13.3,9.8,17.7,16c8,11.5,10.6,26.6,11.5,40.8c3.5,31,9.8,61.2,17.7,91.3
		c18.6-62.9,41.7-92.2,41.7-92.2c2.7-3.5,5.3-6.2,8.9-8c1.8-0.9,3.5-1.8,6.2-1.8c3.5,0,8,0.9,10.6,2.7c0.9,0,0.9,0.9,1.8,0.9
		c2.7,2.7,5.3,5.3,8,8.9c4.4,8.9,8.9,16.8,12.4,26.6c7.1,19.5,13.3,44.3,13.3,44.3l17.7,70.9c13.3,48.8,23.9,71.8,23.9,71.8
		c27.5,62.9,69.1,80.7,69.1,80.7c20.4,10.6,43.4,16.8,66.5,17.7c22.2,0.9,44.3-3.5,63.8-13.3c21.3-10.6,40.8-26.6,55.9-45.2
		c9.8-11.5,24.8-39.9,24.8-39.9c16.8-32.8,29.3-67.4,38.1-102.8c6.2-22.2,10.6-44.3,14.2-67.4c1.8-11.5,3.5-22.2,4.4-33.7
		c1.8-10.6,1.8-21.3-0.9-31.9c-0.9-1.8-0.9-3.5-1.8-5.3c-5.3-13.3-15.1-23.9-27.5-31C584.2,78.2,573.6,75.6,562.9,75.6L562.9,75.6z"
		/>
	
		<radialGradient id="SVGID_24_" cx="765.0754" cy="695.7014" r="1" gradientTransform="matrix(-5195.3901 33991.6914 -18328.0254 -2801.3096 16895802 -24496264)" gradientUnits="userSpaceOnUse">
		<stop  offset="0" style="stop-color:#1A3D9C"/>
		<stop  offset="0.4" style="stop-color:#1A3D9C;stop-opacity:0.42"/>
		<stop  offset="0.7" style="stop-color:#1A3D9C;stop-opacity:0"/>
	</radialGradient>
	<path class="st23" d="M562.9,75.6c-5.3,0-10.6,0.9-15.1,1.8c11.5,16.8,21.3,34.6,29.3,53.2c3.5,8,5.3,16.8,5.3,25.7
		c0,8-1.8,16-4.4,23.9c-3.5,7.1-8,14.2-13.3,20.4c-5.3,6.2-12.4,10.6-20.4,13.3c-7.1,2.7-16,4.4-23.9,4.4c-10.6,0-22.2-2.7-31-8.9
		l-6.2,23.9c-11.5,39-19.5,53.2-19.5,53.2c-4.4,10.6-9.8,20.4-16,30.1c-4.4,6.2-9.8,12.4-16.8,15.1c-2.7,0.9-5.3,0.9-8,0.9
		c-2.7,0-5.3-0.9-8-2.7c-4.4-3.5-8.9-8.9-11.5-14.2c-3.5-6.2-6.2-12.4-8.9-18.6c-5.3-13.3-14.2-46.1-14.2-46.1l-8.9-34.6l-8.9-34.6
		l-6.2-23c-16-59.4-39-88.7-39-88.7c-17.7-25.7-43.4-44.3-72.7-55C211,2.9,175.5,10,175.5,10C119.7,20.6,90.4,58.7,78,77.3
		c6.2,1.8,11.5,3.5,16.8,7.1c7.1,4.4,13.3,9.8,17.7,16c8,11.5,10.6,26.6,11.5,40.8c3.5,31,9.8,61.2,17.7,91.3
		c18.6-62.9,41.7-92.2,41.7-92.2c2.7-3.5,5.3-6.2,8.9-8c1.8-0.9,3.5-1.8,6.2-1.8c3.5,0,8,0.9,10.6,2.7c0.9,0,0.9,0.9,1.8,0.9
		c2.7,2.7,5.3,5.3,8,8.9c4.4,8.9,8.9,16.8,12.4,26.6c7.1,19.5,13.3,44.3,13.3,44.3l17.7,70.9c13.3,48.8,23.9,71.8,23.9,71.8
		c27.5,62.9,69.1,80.7,69.1,80.7c20.4,10.6,43.4,16.8,66.5,17.7c22.2,0.9,44.3-3.5,63.8-13.3c21.3-10.6,40.8-26.6,55.9-45.2
		c9.8-11.5,24.8-39.9,24.8-39.9c16.8-32.8,29.3-67.4,38.1-102.8c6.2-22.2,10.6-44.3,14.2-67.4c1.8-11.5,3.5-22.2,4.4-33.7
		c1.8-10.6,1.8-21.3-0.9-31.9c-0.9-1.8-0.9-3.5-1.8-5.3c-5.3-13.3-15.1-23.9-27.5-31C584.2,78.2,573.6,75.6,562.9,75.6L562.9,75.6z"
		/>
	
		<radialGradient id="SVGID_25_" cx="765.0632" cy="695.6996" r="1" gradientTransform="matrix(-6134.856 40490.2734 -16727.4395 -2534.446 16480182 -29660158)" gradientUnits="userSpaceOnUse">
		<stop  offset="0" style="stop-color:#1A3D9C"/>
		<stop  offset="0.4" style="stop-color:#1A3D9C;stop-opacity:0.42"/>
		<stop  offset="0.7" style="stop-color:#1A3D9C;stop-opacity:0"/>
	</radialGradient>
	<path class="st24" d="M562.9,75.6c-5.3,0-10.6,0.9-15.1,1.8c11.5,16.8,21.3,34.6,29.3,53.2c3.5,8,5.3,16.8,5.3,25.7
		c0,8-1.8,16-4.4,23.9c-3.5,7.1-8,14.2-13.3,20.4c-5.3,6.2-12.4,10.6-20.4,13.3c-7.1,2.7-16,4.4-23.9,4.4c-10.6,0-22.2-2.7-31-8.9
		l-6.2,23.9c-11.5,39-19.5,53.2-19.5,53.2c-4.4,10.6-9.8,20.4-16,30.1c-4.4,6.2-9.8,12.4-16.8,15.1c-2.7,0.9-5.3,0.9-8,0.9
		c-2.7,0-5.3-0.9-8-2.7c-4.4-3.5-8.9-8.9-11.5-14.2c-3.5-6.2-6.2-12.4-8.9-18.6c-5.3-13.3-14.2-46.1-14.2-46.1l-8.9-34.6l-8.9-34.6
		l-6.2-23c-16-59.4-39-88.7-39-88.7c-17.7-25.7-43.4-44.3-72.7-55C211,2.9,175.5,10,175.5,10C119.7,20.6,90.4,58.7,78,77.3
		c6.2,1.8,11.5,3.5,16.8,7.1c7.1,4.4,13.3,9.8,17.7,16c8,11.5,10.6,26.6,11.5,40.8c3.5,31,9.8,61.2,17.7,91.3
		c18.6-62.9,41.7-92.2,41.7-92.2c2.7-3.5,5.3-6.2,8.9-8c1.8-0.9,3.5-1.8,6.2-1.8c3.5,0,8,0.9,10.6,2.7c0.9,0,0.9,0.9,1.8,0.9
		c2.7,2.7,5.3,5.3,8,8.9c4.4,8.9,8.9,16.8,12.4,26.6c7.1,19.5,13.3,44.3,13.3,44.3l17.7,70.9c13.3,48.8,23.9,71.8,23.9,71.8
		c27.5,62.9,69.1,80.7,69.1,80.7c20.4,10.6,43.4,16.8,66.5,17.7c22.2,0.9,44.3-3.5,63.8-13.3c21.3-10.6,40.8-26.6,55.9-45.2
		c9.8-11.5,24.8-39.9,24.8-39.9c16.8-32.8,29.3-67.4,38.1-102.8c6.2-22.2,10.6-44.3,14.2-67.4c1.8-11.5,3.5-22.2,4.4-33.7
		c1.8-10.6,1.8-21.3-0.9-31.9c-0.9-1.8-0.9-3.5-1.8-5.3c-5.3-13.3-15.1-23.9-27.5-31C584.2,78.2,573.6,75.6,562.9,75.6L562.9,75.6z"
		/>
	
		<radialGradient id="SVGID_26_" cx="775.663" cy="697.4036" r="1" gradientTransform="matrix(29.3998 242.5461 -169.2341 20.5133 95656.0859 -202233.4531)" gradientUnits="userSpaceOnUse">
		<stop  offset="0" style="stop-color:#1A3D9C"/>
		<stop  offset="0.16" style="stop-color:#1A3D9C;stop-opacity:0.69"/>
		<stop  offset="0.33" style="stop-color:#1A3D9C;stop-opacity:0.4"/>
		<stop  offset="0.49" style="stop-color:#1A3D9C;stop-opacity:0.18"/>
		<stop  offset="0.61" style="stop-color:#1A3D9C;stop-opacity:5.000000e-02"/>
		<stop  offset="0.7" style="stop-color:#1A3D9C;stop-opacity:0"/>
	</radialGradient>
	<path class="st25" d="M562.9,75.6c-5.3,0-10.6,0.9-15.1,1.8c11.5,16.8,21.3,34.6,29.3,53.2c3.5,8,5.3,16.8,5.3,25.7
		c0,8-1.8,16-4.4,23.9c-3.5,7.1-8,14.2-13.3,20.4c-5.3,6.2-12.4,10.6-20.4,13.3c-7.1,2.7-16,4.4-23.9,4.4c-10.6,0-22.2-2.7-31-8.9
		l-6.2,23.9c-11.5,39-19.5,53.2-19.5,53.2c-4.4,10.6-9.8,20.4-16,30.1c-4.4,6.2-9.8,12.4-16.8,15.1c-2.7,0.9-5.3,0.9-8,0.9
		c-2.7,0-5.3-0.9-8-2.7c-4.4-3.5-8.9-8.9-11.5-14.2c-3.5-6.2-6.2-12.4-8.9-18.6c-5.3-13.3-14.2-46.1-14.2-46.1l-8.9-34.6l-8.9-34.6
		l-6.2-23c-16-59.4-39-88.7-39-88.7c-17.7-25.7-43.4-44.3-72.7-55C211,2.9,175.5,10,175.5,10C119.7,20.6,90.4,58.7,78,77.3
		c6.2,1.8,11.5,3.5,16.8,7.1c7.1,4.4,13.3,9.8,17.7,16c8,11.5,10.6,26.6,11.5,40.8c3.5,31,9.8,61.2,17.7,91.3
		c18.6-62.9,41.7-92.2,41.7-92.2c2.7-3.5,5.3-6.2,8.9-8c1.8-0.9,3.5-1.8,6.2-1.8c3.5,0,8,0.9,10.6,2.7c0.9,0,0.9,0.9,1.8,0.9
		c2.7,2.7,5.3,5.3,8,8.9c4.4,8.9,8.9,16.8,12.4,26.6c7.1,19.5,13.3,44.3,13.3,44.3l17.7,70.9c13.3,48.8,23.9,71.8,23.9,71.8
		c27.5,62.9,69.1,80.7,69.1,80.7c20.4,10.6,43.4,16.8,66.5,17.7c22.2,0.9,44.3-3.5,63.8-13.3c21.3-10.6,40.8-26.6,55.9-45.2
		c9.8-11.5,24.8-39.9,24.8-39.9c16.8-32.8,29.3-67.4,38.1-102.8c6.2-22.2,10.6-44.3,14.2-67.4c1.8-11.5,3.5-22.2,4.4-33.7
		c1.8-10.6,1.8-21.3-0.9-31.9c-0.9-1.8-0.9-3.5-1.8-5.3c-5.3-13.3-15.1-23.9-27.5-31C584.2,78.2,573.6,75.6,562.9,75.6L562.9,75.6z"
		/>
	
		<radialGradient id="SVGID_27_" cx="775.7961" cy="699.8945" r="1" gradientTransform="matrix(62.195 226.414 -153.9619 42.2926 59986.5859 -205007.5156)" gradientUnits="userSpaceOnUse">
		<stop  offset="0" style="stop-color:#18388F"/>
		<stop  offset="0.37" style="stop-color:#193B96;stop-opacity:0.45"/>
		<stop  offset="0.7" style="stop-color:#1A3D9C;stop-opacity:0"/>
	</radialGradient>
	<path class="st26" d="M562.9,75.6c-5.3,0-10.6,0.9-15.1,1.8c11.5,16.8,21.3,34.6,29.3,53.2c3.5,8,5.3,16.8,5.3,25.7
		c0,8-1.8,16-4.4,23.9c-3.5,7.1-8,14.2-13.3,20.4c-5.3,6.2-12.4,10.6-20.4,13.3c-7.1,2.7-16,4.4-23.9,4.4c-10.6,0-22.2-2.7-31-8.9
		l-6.2,23.9c-11.5,39-19.5,53.2-19.5,53.2c-4.4,10.6-9.8,20.4-16,30.1c-4.4,6.2-9.8,12.4-16.8,15.1c-2.7,0.9-5.3,0.9-8,0.9
		c-2.7,0-5.3-0.9-8-2.7c-4.4-3.5-8.9-8.9-11.5-14.2c-3.5-6.2-6.2-12.4-8.9-18.6c-5.3-13.3-14.2-46.1-14.2-46.1l-8.9-34.6l-8.9-34.6
		l-6.2-23c-16-59.4-39-88.7-39-88.7c-17.7-25.7-43.4-44.3-72.7-55C211,2.9,175.5,10,175.5,10C119.7,20.6,90.4,58.7,78,77.3
		c6.2,1.8,11.5,3.5,16.8,7.1c7.1,4.4,13.3,9.8,17.7,16c8,11.5,10.6,26.6,11.5,40.8c3.5,31,9.8,61.2,17.7,91.3
		c18.6-62.9,41.7-92.2,41.7-92.2c2.7-3.5,5.3-6.2,8.9-8c1.8-0.9,3.5-1.8,6.2-1.8c3.5,0,8,0.9,10.6,2.7c0.9,0,0.9,0.9,1.8,0.9
		c2.7,2.7,5.3,5.3,8,8.9c4.4,8.9,8.9,16.8,12.4,26.6c7.1,19.5,13.3,44.3,13.3,44.3l17.7,70.9c13.3,48.8,23.9,71.8,23.9,71.8
		c27.5,62.9,69.1,80.7,69.1,80.7c20.4,10.6,43.4,16.8,66.5,17.7c22.2,0.9,44.3-3.5,63.8-13.3c21.3-10.6,40.8-26.6,55.9-45.2
		c9.8-11.5,24.8-39.9,24.8-39.9c16.8-32.8,29.3-67.4,38.1-102.8c6.2-22.2,10.6-44.3,14.2-67.4c1.8-11.5,3.5-22.2,4.4-33.7
		c1.8-10.6,1.8-21.3-0.9-31.9c-0.9-1.8-0.9-3.5-1.8-5.3c-5.3-13.3-15.1-23.9-27.5-31C584.2,78.2,573.6,75.6,562.9,75.6L562.9,75.6z"
		/>
	
		<radialGradient id="SVGID_28_" cx="788.2204" cy="702.1448" r="1" gradientTransform="matrix(28.9176 105.2722 -100.008 27.4716 47883.3711 -101959.9922)" gradientUnits="userSpaceOnUse">
		<stop  offset="0" style="stop-color:#18388F"/>
		<stop  offset="9.000000e-02" style="stop-color:#183992;stop-opacity:0.78"/>
		<stop  offset="0.22" style="stop-color:#193B96;stop-opacity:0.5"/>
		<stop  offset="0.35" style="stop-color:#193C98;stop-opacity:0.28"/>
		<stop  offset="0.47" style="stop-color:#1A3C9A;stop-opacity:0.13"/>
		<stop  offset="0.59" style="stop-color:#1A3D9C;stop-opacity:3.000000e-02"/>
		<stop  offset="0.7" style="stop-color:#1A3D9C;stop-opacity:0"/>
	</radialGradient>
	<path class="st27" d="M562.9,75.6c-5.3,0-10.6,0.9-15.1,1.8c11.5,16.8,21.3,34.6,29.3,53.2c3.5,8,5.3,16.8,5.3,25.7
		c0,8-1.8,16-4.4,23.9c-3.5,7.1-8,14.2-13.3,20.4c-5.3,6.2-12.4,10.6-20.4,13.3c-7.1,2.7-16,4.4-23.9,4.4c-10.6,0-22.2-2.7-31-8.9
		l-6.2,23.9c-11.5,39-19.5,53.2-19.5,53.2c-4.4,10.6-9.8,20.4-16,30.1c-4.4,6.2-9.8,12.4-16.8,15.1c-2.7,0.9-5.3,0.9-8,0.9
		c-2.7,0-5.3-0.9-8-2.7c-4.4-3.5-8.9-8.9-11.5-14.2c-3.5-6.2-6.2-12.4-8.9-18.6c-5.3-13.3-14.2-46.1-14.2-46.1l-8.9-34.6l-8.9-34.6
		l-6.2-23c-16-59.4-39-88.7-39-88.7c-17.7-25.7-43.4-44.3-72.7-55C211,2.9,175.5,10,175.5,10C119.7,20.6,90.4,58.7,78,77.3
		c6.2,1.8,11.5,3.5,16.8,7.1c7.1,4.4,13.3,9.8,17.7,16c8,11.5,10.6,26.6,11.5,40.8c3.5,31,9.8,61.2,17.7,91.3
		c18.6-62.9,41.7-92.2,41.7-92.2c2.7-3.5,5.3-6.2,8.9-8c1.8-0.9,3.5-1.8,6.2-1.8c3.5,0,8,0.9,10.6,2.7c0.9,0,0.9,0.9,1.8,0.9
		c2.7,2.7,5.3,5.3,8,8.9c4.4,8.9,8.9,16.8,12.4,26.6c7.1,19.5,13.3,44.3,13.3,44.3l17.7,70.9c13.3,48.8,23.9,71.8,23.9,71.8
		c27.5,62.9,69.1,80.7,69.1,80.7c20.4,10.6,43.4,16.8,66.5,17.7c22.2,0.9,44.3-3.5,63.8-13.3c21.3-10.6,40.8-26.6,55.9-45.2
		c9.8-11.5,24.8-39.9,24.8-39.9c16.8-32.8,29.3-67.4,38.1-102.8c6.2-22.2,10.6-44.3,14.2-67.4c1.8-11.5,3.5-22.2,4.4-33.7
		c1.8-10.6,1.8-21.3-0.9-31.9c-0.9-1.8-0.9-3.5-1.8-5.3c-5.3-13.3-15.1-23.9-27.5-31C584.2,78.2,573.6,75.6,562.9,75.6L562.9,75.6z"
		/>
	
		<radialGradient id="SVGID_29_" cx="788.2204" cy="702.1448" r="1" gradientTransform="matrix(28.9176 105.2722 -100.008 27.4716 47885.9883 -101941.3672)" gradientUnits="userSpaceOnUse">
		<stop  offset="0" style="stop-color:#1A3D9C;stop-opacity:0.8"/>
		<stop  offset="1.000000e-02" style="stop-color:#1A3D9C;stop-opacity:0.78"/>
		<stop  offset="0.24" style="stop-color:#1A3D9C;stop-opacity:0.45"/>
		<stop  offset="0.44" style="stop-color:#1A3D9C;stop-opacity:0.2"/>
		<stop  offset="0.6" style="stop-color:#1A3D9C;stop-opacity:5.000000e-02"/>
		<stop  offset="0.7" style="stop-color:#1A3D9C;stop-opacity:0"/>
	</radialGradient>
	<path class="st28" d="M562.9,75.6c-5.3,0-10.6,0.9-15.1,1.8c11.5,16.8,21.3,34.6,29.3,53.2c3.5,8,5.3,16.8,5.3,25.7
		c0,8-1.8,16-4.4,23.9c-3.5,7.1-8,14.2-13.3,20.4c-5.3,6.2-12.4,10.6-20.4,13.3c-7.1,2.7-16,4.4-23.9,4.4c-10.6,0-22.2-2.7-31-8.9
		l-6.2,23.9c-11.5,39-19.5,53.2-19.5,53.2c-4.4,10.6-9.8,20.4-16,30.1c-4.4,6.2-9.8,12.4-16.8,15.1c-2.7,0.9-5.3,0.9-8,0.9
		c-2.7,0-5.3-0.9-8-2.7c-4.4-3.5-8.9-8.9-11.5-14.2c-3.5-6.2-6.2-12.4-8.9-18.6c-5.3-13.3-14.2-46.1-14.2-46.1l-8.9-34.6l-8.9-34.6
		l-6.2-23c-16-59.4-39-88.7-39-88.7c-17.7-25.7-43.4-44.3-72.7-55C211,2.9,175.5,10,175.5,10C119.7,20.6,90.4,58.7,78,77.3
		c6.2,1.8,11.5,3.5,16.8,7.1c7.1,4.4,13.3,9.8,17.7,16c8,11.5,10.6,26.6,11.5,40.8c3.5,31,9.8,61.2,17.7,91.3
		c18.6-62.9,41.7-92.2,41.7-92.2c2.7-3.5,5.3-6.2,8.9-8c1.8-0.9,3.5-1.8,6.2-1.8c3.5,0,8,0.9,10.6,2.7c0.9,0,0.9,0.9,1.8,0.9
		c2.7,2.7,5.3,5.3,8,8.9c4.4,8.9,8.9,16.8,12.4,26.6c7.1,19.5,13.3,44.3,13.3,44.3l17.7,70.9c13.3,48.8,23.9,71.8,23.9,71.8
		c27.5,62.9,69.1,80.7,69.1,80.7c20.4,10.6,43.4,16.8,66.5,17.7c22.2,0.9,44.3-3.5,63.8-13.3c21.3-10.6,40.8-26.6,55.9-45.2
		c9.8-11.5,24.8-39.9,24.8-39.9c16.8-32.8,29.3-67.4,38.1-102.8c6.2-22.2,10.6-44.3,14.2-67.4c1.8-11.5,3.5-22.2,4.4-33.7
		c1.8-10.6,1.8-21.3-0.9-31.9c-0.9-1.8-0.9-3.5-1.8-5.3c-5.3-13.3-15.1-23.9-27.5-31C584.2,78.2,573.6,75.6,562.9,75.6L562.9,75.6z"
		/>
	
		<radialGradient id="SVGID_30_" cx="774.3056" cy="701.4847" r="1" gradientTransform="matrix(101.6862 239.8741 -159.18 67.4787 33115.0547 -232812.6094)" gradientUnits="userSpaceOnUse">
		<stop  offset="0" style="stop-color:#1A3D9C"/>
		<stop  offset="0.4" style="stop-color:#1A3D9C;stop-opacity:0.56"/>
		<stop  offset="0.48" style="stop-color:#1A3D9C;stop-opacity:0.43"/>
		<stop  offset="0.69" style="stop-color:#1A3D9C;stop-opacity:0.12"/>
		<stop  offset="0.79" style="stop-color:#1A3D9C;stop-opacity:0"/>
	</radialGradient>
	<path class="st29" d="M562.9,75.6c-5.3,0-10.6,0.9-15.1,1.8c11.5,16.8,21.3,34.6,29.3,53.2c3.5,8,5.3,16.8,5.3,25.7
		c0,8-1.8,16-4.4,23.9c-3.5,7.1-8,14.2-13.3,20.4c-5.3,6.2-12.4,10.6-20.4,13.3c-7.1,2.7-16,4.4-23.9,4.4c-10.6,0-22.2-2.7-31-8.9
		l-6.2,23.9c-11.5,39-19.5,53.2-19.5,53.2c-4.4,10.6-9.8,20.4-16,30.1c-4.4,6.2-9.8,12.4-16.8,15.1c-2.7,0.9-5.3,0.9-8,0.9
		c-2.7,0-5.3-0.9-8-2.7c-4.4-3.5-8.9-8.9-11.5-14.2c-3.5-6.2-6.2-12.4-8.9-18.6c-5.3-13.3-14.2-46.1-14.2-46.1l-8.9-34.6l-8.9-34.6
		l-6.2-23c-16-59.4-39-88.7-39-88.7c-17.7-25.7-43.4-44.3-72.7-55C211,2.9,175.5,10,175.5,10C119.7,20.6,90.4,58.7,78,77.3
		c6.2,1.8,11.5,3.5,16.8,7.1c7.1,4.4,13.3,9.8,17.7,16c8,11.5,10.6,26.6,11.5,40.8c3.5,31,9.8,61.2,17.7,91.3
		c18.6-62.9,41.7-92.2,41.7-92.2c2.7-3.5,5.3-6.2,8.9-8c1.8-0.9,3.5-1.8,6.2-1.8c3.5,0,8,0.9,10.6,2.7c0.9,0,0.9,0.9,1.8,0.9
		c2.7,2.7,5.3,5.3,8,8.9c4.4,8.9,8.9,16.8,12.4,26.6c7.1,19.5,13.3,44.3,13.3,44.3l17.7,70.9c13.3,48.8,23.9,71.8,23.9,71.8
		c27.5,62.9,69.1,80.7,69.1,80.7c20.4,10.6,43.4,16.8,66.5,17.7c22.2,0.9,44.3-3.5,63.8-13.3c21.3-10.6,40.8-26.6,55.9-45.2
		c9.8-11.5,24.8-39.9,24.8-39.9c16.8-32.8,29.3-67.4,38.1-102.8c6.2-22.2,10.6-44.3,14.2-67.4c1.8-11.5,3.5-22.2,4.4-33.7
		c1.8-10.6,1.8-21.3-0.9-31.9c-0.9-1.8-0.9-3.5-1.8-5.3c-5.3-13.3-15.1-23.9-27.5-31C584.2,78.2,573.6,75.6,562.9,75.6L562.9,75.6z"
		/>
	
		<radialGradient id="SVGID_31_" cx="778.2014" cy="700.4352" r="1" gradientTransform="matrix(46.4149 187.5922 -123.8466 30.6427 50798.7539 -167248.25)" gradientUnits="userSpaceOnUse">
		<stop  offset="0" style="stop-color:#1A3D9C"/>
		<stop  offset="6.000000e-02" style="stop-color:#1A3D9C;stop-opacity:0.88"/>
		<stop  offset="0.21" style="stop-color:#1A3D9C;stop-opacity:0.61"/>
		<stop  offset="0.36" style="stop-color:#1A3D9C;stop-opacity:0.39"/>
		<stop  offset="0.51" style="stop-color:#1A3D9C;stop-opacity:0.22"/>
		<stop  offset="0.67" style="stop-color:#1A3D9C;stop-opacity:0.1"/>
		<stop  offset="0.83" style="stop-color:#1A3D9C;stop-opacity:2.000000e-02"/>
		<stop  offset="1" style="stop-color:#1A3D9C;stop-opacity:0"/>
	</radialGradient>
	<path class="st30" d="M562.9,75.6c-5.3,0-10.6,0.9-15.1,1.8c11.5,16.8,21.3,34.6,29.3,53.2c3.5,8,5.3,16.8,5.3,25.7
		c0,8-1.8,16-4.4,23.9c-3.5,7.1-8,14.2-13.3,20.4c-5.3,6.2-12.4,10.6-20.4,13.3c-7.1,2.7-16,4.4-23.9,4.4c-10.6,0-22.2-2.7-31-8.9
		l-6.2,23.9c-11.5,39-19.5,53.2-19.5,53.2c-4.4,10.6-9.8,20.4-16,30.1c-4.4,6.2-9.8,12.4-16.8,15.1c-2.7,0.9-5.3,0.9-8,0.9
		c-2.7,0-5.3-0.9-8-2.7c-4.4-3.5-8.9-8.9-11.5-14.2c-3.5-6.2-6.2-12.4-8.9-18.6c-5.3-13.3-14.2-46.1-14.2-46.1l-8.9-34.6l-8.9-34.6
		l-6.2-23c-16-59.4-39-88.7-39-88.7c-17.7-25.7-43.4-44.3-72.7-55C211,2.9,175.5,10,175.5,10C119.7,20.6,90.4,58.7,78,77.3
		c6.2,1.8,11.5,3.5,16.8,7.1c7.1,4.4,13.3,9.8,17.7,16c8,11.5,10.6,26.6,11.5,40.8c3.5,31,9.8,61.2,17.7,91.3
		c18.6-62.9,41.7-92.2,41.7-92.2c2.7-3.5,5.3-6.2,8.9-8c1.8-0.9,3.5-1.8,6.2-1.8c3.5,0,8,0.9,10.6,2.7c0.9,0,0.9,0.9,1.8,0.9
		c2.7,2.7,5.3,5.3,8,8.9c4.4,8.9,8.9,16.8,12.4,26.6c7.1,19.5,13.3,44.3,13.3,44.3l17.7,70.9c13.3,48.8,23.9,71.8,23.9,71.8
		c27.5,62.9,69.1,80.7,69.1,80.7c20.4,10.6,43.4,16.8,66.5,17.7c22.2,0.9,44.3-3.5,63.8-13.3c21.3-10.6,40.8-26.6,55.9-45.2
		c9.8-11.5,24.8-39.9,24.8-39.9c16.8-32.8,29.3-67.4,38.1-102.8c6.2-22.2,10.6-44.3,14.2-67.4c1.8-11.5,3.5-22.2,4.4-33.7
		c1.8-10.6,1.8-21.3-0.9-31.9c-0.9-1.8-0.9-3.5-1.8-5.3c-5.3-13.3-15.1-23.9-27.5-31C584.2,78.2,573.6,75.6,562.9,75.6L562.9,75.6z"
		/>
	
		<radialGradient id="SVGID_32_" cx="778.2014" cy="700.4352" r="1" gradientTransform="matrix(46.4149 187.5922 -123.8466 30.6427 50798.7539 -167248.25)" gradientUnits="userSpaceOnUse">
		<stop  offset="0" style="stop-color:#1B3E9E"/>
		<stop  offset="6.000000e-02" style="stop-color:#1B3E9E;stop-opacity:0.87"/>
		<stop  offset="0.21" style="stop-color:#1B3E9D;stop-opacity:0.61"/>
		<stop  offset="0.36" style="stop-color:#1A3D9D;stop-opacity:0.39"/>
		<stop  offset="0.52" style="stop-color:#1A3D9C;stop-opacity:0.22"/>
		<stop  offset="0.67" style="stop-color:#1A3D9C;stop-opacity:0.1"/>
		<stop  offset="0.83" style="stop-color:#1A3D9C;stop-opacity:2.000000e-02"/>
		<stop  offset="1" style="stop-color:#1A3D9C;stop-opacity:0"/>
	</radialGradient>
	<path class="st31" d="M562.9,75.6c-5.3,0-10.6,0.9-15.1,1.8c11.5,16.8,21.3,34.6,29.3,53.2c3.5,8,5.3,16.8,5.3,25.7
		c0,8-1.8,16-4.4,23.9c-3.5,7.1-8,14.2-13.3,20.4c-5.3,6.2-12.4,10.6-20.4,13.3c-7.1,2.7-16,4.4-23.9,4.4c-10.6,0-22.2-2.7-31-8.9
		l-6.2,23.9c-11.5,39-19.5,53.2-19.5,53.2c-4.4,10.6-9.8,20.4-16,30.1c-4.4,6.2-9.8,12.4-16.8,15.1c-2.7,0.9-5.3,0.9-8,0.9
		c-2.7,0-5.3-0.9-8-2.7c-4.4-3.5-8.9-8.9-11.5-14.2c-3.5-6.2-6.2-12.4-8.9-18.6c-5.3-13.3-14.2-46.1-14.2-46.1l-8.9-34.6l-8.9-34.6
		l-6.2-23c-16-59.4-39-88.7-39-88.7c-17.7-25.7-43.4-44.3-72.7-55C211,2.9,175.5,10,175.5,10C119.7,20.6,90.4,58.7,78,77.3
		c6.2,1.8,11.5,3.5,16.8,7.1c7.1,4.4,13.3,9.8,17.7,16c8,11.5,10.6,26.6,11.5,40.8c3.5,31,9.8,61.2,17.7,91.3
		c18.6-62.9,41.7-92.2,41.7-92.2c2.7-3.5,5.3-6.2,8.9-8c1.8-0.9,3.5-1.8,6.2-1.8c3.5,0,8,0.9,10.6,2.7c0.9,0,0.9,0.9,1.8,0.9
		c2.7,2.7,5.3,5.3,8,8.9c4.4,8.9,8.9,16.8,12.4,26.6c7.1,19.5,13.3,44.3,13.3,44.3l17.7,70.9c13.3,48.8,23.9,71.8,23.9,71.8
		c27.5,62.9,69.1,80.7,69.1,80.7c20.4,10.6,43.4,16.8,66.5,17.7c22.2,0.9,44.3-3.5,63.8-13.3c21.3-10.6,40.8-26.6,55.9-45.2
		c9.8-11.5,24.8-39.9,24.8-39.9c16.8-32.8,29.3-67.4,38.1-102.8c6.2-22.2,10.6-44.3,14.2-67.4c1.8-11.5,3.5-22.2,4.4-33.7
		c1.8-10.6,1.8-21.3-0.9-31.9c-0.9-1.8-0.9-3.5-1.8-5.3c-5.3-13.3-15.1-23.9-27.5-31C584.2,78.2,573.6,75.6,562.9,75.6L562.9,75.6z"
		/>
	
		<radialGradient id="SVGID_33_" cx="782.2555" cy="701.8817" r="1" gradientTransform="matrix(35.5089 143.516 -94.7482 23.4433 38904.8516 -128539.9688)" gradientUnits="userSpaceOnUse">
		<stop  offset="0" style="stop-color:#183991"/>
		<stop  offset="3.000000e-02" style="stop-color:#183992;stop-opacity:0.95"/>
		<stop  offset="0.18" style="stop-color:#193A95;stop-opacity:0.66"/>
		<stop  offset="0.34" style="stop-color:#193B97;stop-opacity:0.42"/>
		<stop  offset="0.5" style="stop-color:#1A3C99;stop-opacity:0.24"/>
		<stop  offset="0.66" style="stop-color:#1A3D9B;stop-opacity:0.1"/>
		<stop  offset="0.82" style="stop-color:#1A3D9C;stop-opacity:3.000000e-02"/>
		<stop  offset="1" style="stop-color:#1A3D9C;stop-opacity:0"/>
	</radialGradient>
	<path class="st32" d="M562.9,75.6c-5.3,0-10.6,0.9-15.1,1.8c11.5,16.8,21.3,34.6,29.3,53.2c3.5,8,5.3,16.8,5.3,25.7
		c0,8-1.8,16-4.4,23.9c-3.5,7.1-8,14.2-13.3,20.4c-5.3,6.2-12.4,10.6-20.4,13.3c-7.1,2.7-16,4.4-23.9,4.4c-10.6,0-22.2-2.7-31-8.9
		l-6.2,23.9c-11.5,39-19.5,53.2-19.5,53.2c-4.4,10.6-9.8,20.4-16,30.1c-4.4,6.2-9.8,12.4-16.8,15.1c-2.7,0.9-5.3,0.9-8,0.9
		c-2.7,0-5.3-0.9-8-2.7c-4.4-3.5-8.9-8.9-11.5-14.2c-3.5-6.2-6.2-12.4-8.9-18.6c-5.3-13.3-14.2-46.1-14.2-46.1l-8.9-34.6l-8.9-34.6
		l-6.2-23c-16-59.4-39-88.7-39-88.7c-17.7-25.7-43.4-44.3-72.7-55C211,2.9,175.5,10,175.5,10C119.7,20.6,90.4,58.7,78,77.3
		c6.2,1.8,11.5,3.5,16.8,7.1c7.1,4.4,13.3,9.8,17.7,16c8,11.5,10.6,26.6,11.5,40.8c3.5,31,9.8,61.2,17.7,91.3
		c18.6-62.9,41.7-92.2,41.7-92.2c2.7-3.5,5.3-6.2,8.9-8c1.8-0.9,3.5-1.8,6.2-1.8c3.5,0,8,0.9,10.6,2.7c0.9,0,0.9,0.9,1.8,0.9
		c2.7,2.7,5.3,5.3,8,8.9c4.4,8.9,8.9,16.8,12.4,26.6c7.1,19.5,13.3,44.3,13.3,44.3l17.7,70.9c13.3,48.8,23.9,71.8,23.9,71.8
		c27.5,62.9,69.1,80.7,69.1,80.7c20.4,10.6,43.4,16.8,66.5,17.7c22.2,0.9,44.3-3.5,63.8-13.3c21.3-10.6,40.8-26.6,55.9-45.2
		c9.8-11.5,24.8-39.9,24.8-39.9c16.8-32.8,29.3-67.4,38.1-102.8c6.2-22.2,10.6-44.3,14.2-67.4c1.8-11.5,3.5-22.2,4.4-33.7
		c1.8-10.6,1.8-21.3-0.9-31.9c-0.9-1.8-0.9-3.5-1.8-5.3c-5.3-13.3-15.1-23.9-27.5-31C584.2,78.2,573.6,75.6,562.9,75.6L562.9,75.6z"
		/>
	
		<radialGradient id="SVGID_34_" cx="787.4178" cy="696.7112" r="1" gradientTransform="matrix(5.8342 116.68 -102.7128 5.1356 67173.1406 -95258.3594)" gradientUnits="userSpaceOnUse">
		<stop  offset="4.000000e-02" style="stop-color:#2453D6;stop-opacity:0.6"/>
		<stop  offset="0.2" style="stop-color:#2453D6;stop-opacity:0.49"/>
		<stop  offset="0.52" style="stop-color:#2453D6;stop-opacity:0.2"/>
		<stop  offset="0.73" style="stop-color:#2453D6;stop-opacity:0"/>
	</radialGradient>
	<path class="st33" d="M562.9,75.6c-5.3,0-10.6,0.9-15.1,1.8c11.5,16.8,21.3,34.6,29.3,53.2c3.5,8,5.3,16.8,5.3,25.7
		c0,8-1.8,16-4.4,23.9c-3.5,7.1-8,14.2-13.3,20.4c-5.3,6.2-12.4,10.6-20.4,13.3c-7.1,2.7-16,4.4-23.9,4.4c-10.6,0-22.2-2.7-31-8.9
		l-6.2,23.9c-11.5,39-19.5,53.2-19.5,53.2c-4.4,10.6-9.8,20.4-16,30.1c-4.4,6.2-9.8,12.4-16.8,15.1c-2.7,0.9-5.3,0.9-8,0.9
		c-2.7,0-5.3-0.9-8-2.7c-4.4-3.5-8.9-8.9-11.5-14.2c-3.5-6.2-6.2-12.4-8.9-18.6c-5.3-13.3-14.2-46.1-14.2-46.1l-8.9-34.6l-8.9-34.6
		l-6.2-23c-16-59.4-39-88.7-39-88.7c-17.7-25.7-43.4-44.3-72.7-55C211,2.9,175.5,10,175.5,10C119.7,20.6,90.4,58.7,78,77.3
		c6.2,1.8,11.5,3.5,16.8,7.1c7.1,4.4,13.3,9.8,17.7,16c8,11.5,10.6,26.6,11.5,40.8c3.5,31,9.8,61.2,17.7,91.3
		c18.6-62.9,41.7-92.2,41.7-92.2c2.7-3.5,5.3-6.2,8.9-8c1.8-0.9,3.5-1.8,6.2-1.8c3.5,0,8,0.9,10.6,2.7c0.9,0,0.9,0.9,1.8,0.9
		c2.7,2.7,5.3,5.3,8,8.9c4.4,8.9,8.9,16.8,12.4,26.6c7.1,19.5,13.3,44.3,13.3,44.3l17.7,70.9c13.3,48.8,23.9,71.8,23.9,71.8
		c27.5,62.9,69.1,80.7,69.1,80.7c20.4,10.6,43.4,16.8,66.5,17.7c22.2,0.9,44.3-3.5,63.8-13.3c21.3-10.6,40.8-26.6,55.9-45.2
		c9.8-11.5,24.8-39.9,24.8-39.9c16.8-32.8,29.3-67.4,38.1-102.8c6.2-22.2,10.6-44.3,14.2-67.4c1.8-11.5,3.5-22.2,4.4-33.7
		c1.8-10.6,1.8-21.3-0.9-31.9c-0.9-1.8-0.9-3.5-1.8-5.3c-5.3-13.3-15.1-23.9-27.5-31C584.2,78.2,573.6,75.6,562.9,75.6L562.9,75.6z"
		/>
</g>
</svg>
